<svg id="ui" xmlns="http://www.w3.org/2000/svg" viewBox="0 0 105.74 131.34"><defs><style>.cls-1,.cls-5{fill:#1a4659;}.cls-1,.cls-2,.cls-3,.cls-4{stroke:#1a4659;stroke-linecap:round;stroke-linejoin:round;}.cls-2,.cls-4{fill:#f9604a;}.cls-3{fill:#fff;}.cls-4{stroke-width:0.5px;}</style></defs><path class="cls-1" d="M88.9,17.5s-17.31,36.42-12.44,50c5.3,14.76,30.29,8.72,28.65-17.3C103.32,21.73,88.9,17.5,88.9,17.5Z"/><path class="cls-2" d="M26.7,108.32C6.28,97,2.48,74.1.8,77.53c0,0-3.06,14.63,9,29.34a32.34,32.34,0,0,0,17.57,10.65Z"/><path class="cls-3" d="M80.1,51S102,109.63,79,130.89h-47C-2.59,95.37,43.89,51,43.89,51Z"/><path class="cls-3" d="M79.21,3.49C62.89-4.28,43.5,3.5,35.69,25.22c-1.61,4.47-2.64,17.32,3.51,24.66,8.85,10.58,28.42,18.33,46.26,8.51C102.69,48.9,95.62,11.31,79.21,3.49Z"/><path class="cls-4" d="M67.55,42.82a8.71,8.71,0,0,0,6.84-5.06c-4.2-1.37-.5-5.67,2.43-5.35,2.21.79,3.54,6.46-.3,5.82,0,3.2,4.27,6.94,2.75,7.5s-3.85-4.06-3.94-6.91c0,0-2,6-7.76,4.78A.4.4,0,0,1,67.55,42.82Z"/><path class="cls-5" d="M65.66,23a2.49,2.49,0,0,0-3.31,0,2.32,2.32,0,0,0-.17,1.92,2.72,2.72,0,0,0,3,1.7C66.45,26.3,66.63,23.92,65.66,23Z"/><path class="cls-5" d="M88.56,28.09a2.48,2.48,0,0,0-3.3,0A2.3,2.3,0,0,0,85.09,30a2.72,2.72,0,0,0,3,1.71C89.36,31.43,89.53,29.05,88.56,28.09Z"/><path class="cls-1" d="M48.88,6.4s-27.15,10.07-31.8,26c-5,17.28,12,26.55,22.43,16C63.52,24.31,48.88,6.4,48.88,6.4Z"/></svg>