<svg id="ui" xmlns="http://www.w3.org/2000/svg" viewBox="0 0 25.3 23.22"><defs><style>.cls-1{fill:#1a4659;}.cls-2{fill:#f9604a;stroke:#1a4659;stroke-linecap:round;stroke-linejoin:round;}</style></defs><path class="cls-1" d="M25.25,20A1.07,1.07,0,0,1,24.17,21H1a1.08,1.08,0,0,1,0-2.15H24.17A1.08,1.08,0,0,1,25.25,20Z"/><path class="cls-1" d="M25.25,11.66a1.08,1.08,0,0,1-1.08,1.08H1a1.08,1.08,0,0,1,0-2.15H24.17A1.07,1.07,0,0,1,25.25,11.66Z"/><path class="cls-1" d="M25.25,3.36a1.07,1.07,0,0,1-1.08,1.07H1A1.07,1.07,0,0,1,1,2.29H24.17A1.07,1.07,0,0,1,25.25,3.36Z"/><circle class="cls-2" cx="10.45" cy="19.97" r="2.81"/><circle class="cls-2" cx="17.75" cy="11.66" r="2.81"/><circle class="cls-2" cx="6.29" cy="3.36" r="2.81"/></svg>