<svg id="ui" xmlns="http://www.w3.org/2000/svg" viewBox="0 0 120.25 120.25"><defs><style>.cls-1{fill:#fff;}.cls-1,.cls-2,.cls-5{stroke:#1a4659;stroke-linecap:round;stroke-linejoin:round;}.cls-2,.cls-3{fill:#f9604a;}.cls-4{fill:#1a4659;}.cls-5{fill:#35e4da;}.cls-6{fill:#73ede3;}</style></defs><polygon class="cls-1" points="60.08 0.55 68.48 17.94 82.89 5.09 84 24.37 102.24 18.02 95.88 36.25 115.16 37.36 102.31 51.78 119.7 60.18 102.31 68.58 115.16 83 95.88 84.1 102.24 102.34 84 95.98 82.89 115.27 68.48 102.42 60.08 119.81 51.67 102.42 37.26 115.27 36.15 95.98 17.91 102.34 24.27 84.1 4.99 83 17.84 68.58 0.45 60.18 17.84 51.78 4.99 37.36 24.27 36.25 17.91 18.02 36.15 24.37 37.26 5.09 51.67 17.94 60.08 0.55"/><path class="cls-2" d="M77.11,46.4a4.19,4.19,0,0,0,2-3.56,4.29,4.29,0,0,0-4.35-4.21,4.33,4.33,0,0,0-1.94.46,3.41,3.41,0,0,0-3.41-2.94,3.5,3.5,0,0,0-2,.65,6.89,6.89,0,0,0-12.73-1,6.93,6.93,0,0,0-1.45-.16,6.72,6.72,0,0,0-6.82,6.62,6.33,6.33,0,0,0,.05.76,4.74,4.74,0,0,0-1.13-.16,4.22,4.22,0,1,0,0,8.44,3.87,3.87,0,0,0,.49,0c1.65,5.06,7.39,8.79,14.23,8.79,5.72,0,10.67-2.6,13.11-6.4a4.4,4.4,0,0,0,2.76,1,4.29,4.29,0,0,0,4.35-4.21A4.22,4.22,0,0,0,77.11,46.4Z"/><path class="cls-3" d="M68.46,45.85a3,3,0,0,0,1.17-2.4,3,3,0,1,0-5.75,1.41"/><path class="cls-4" d="M68.31,45.66a2.84,2.84,0,0,0,.82-2.79,2.66,2.66,0,0,0-4.62-1,2.85,2.85,0,0,0-.42,2.88.24.24,0,0,1-.13.31.25.25,0,0,1-.29-.09,3.27,3.27,0,0,1,.15-3.64A3.44,3.44,0,0,1,70,42.67a3.52,3.52,0,0,1-.18,1.93A3.2,3.2,0,0,1,68.61,46a.24.24,0,0,1-.3-.38Z"/><path class="cls-3" d="M60.47,39.82a2,2,0,0,0-2.95-2.29,2,2,0,0,0,.11,3.38"/><path class="cls-4" d="M60.3,39.77A1.82,1.82,0,0,0,59.74,38,1.66,1.66,0,0,0,58,37.68,1.7,1.7,0,0,0,57,39.06a1.85,1.85,0,0,0,.76,1.69.18.18,0,0,1,0,.25.18.18,0,0,1-.22.06A2.13,2.13,0,0,1,56.3,39a2.27,2.27,0,0,1,3.9-1.49,2.13,2.13,0,0,1,.44,2.36.18.18,0,0,1-.24.09A.18.18,0,0,1,60.3,39.77Z"/><path class="cls-3" d="M59.12,46.21a2.53,2.53,0,0,0-.87-2,2.5,2.5,0,0,0-4.11,1.61"/><path class="cls-4" d="M58.88,46.2a2.48,2.48,0,0,0-.72-1.46,2.22,2.22,0,0,0-2.84-.23,2.45,2.45,0,0,0-.94,1.33h0a.24.24,0,0,1-.3.16.24.24,0,0,1-.18-.22,2.58,2.58,0,0,1,.86-2,2.78,2.78,0,0,1,2.1-.72,2.83,2.83,0,0,1,2,1,2.58,2.58,0,0,1,.53,2.07.25.25,0,0,1-.29.19.24.24,0,0,1-.19-.2Z"/><path class="cls-3" d="M55.55,46.23a2.92,2.92,0,1,0-5.81.57,3.06,3.06,0,0,0,.46,1.31"/><path class="cls-4" d="M55.31,46.25A2.81,2.81,0,0,0,54,44.43a2.58,2.58,0,0,0-3.67,1.29A2.83,2.83,0,0,0,50.4,48a.23.23,0,0,1-.1.32.26.26,0,0,1-.3-.06,3,3,0,0,1-.53-2.8,3.28,3.28,0,0,1,5-1.76,3,3,0,0,1,1.33,2.52.24.24,0,0,1-.47,0Z"/><path class="cls-5" d="M60.8,77.38a170.23,170.23,0,0,0,27.82-2L80.11,49.09A114.1,114.1,0,0,1,60.8,50.56a114.1,114.1,0,0,1-19.31-1.47L33,75.33A170.14,170.14,0,0,0,60.8,77.38Z"/><path class="cls-3" d="M59.53,62.7a6.73,6.73,0,0,1,8.74,2,6.22,6.22,0,0,1-.62,5.18c-1.66,2.39-5.38,4.45-8.8,2.84S56.42,64.7,59.53,62.7Z"/><path class="cls-3" d="M51.25,64a2.54,2.54,0,0,1,3.3.74,2.36,2.36,0,0,1-.24,2A2.78,2.78,0,0,1,51,67.75C49.74,67.16,50.07,64.74,51.25,64Z"/><path class="cls-3" d="M66.72,56.7c1.38-.36,2.16,1.44,2.06,2.72s-3.09,2.24-4.69,1.07S64.56,57.26,66.72,56.7Z"/><path class="cls-3" d="M55.32,57.18c.93.24,1.24,2.83,1,3.84a2,2,0,0,1-2.84,1.23,2.27,2.27,0,0,1-.64-3.75C54,57,54.64,57,55.32,57.18Z"/><path class="cls-6" d="M60.91,56.08c1.12-.36,1.75,1.43,1.67,2.71s-2.5,2.22-3.8,1.06S59.16,56.64,60.91,56.08Z"/><path class="cls-4" d="M61.74,62.71A4.71,4.71,0,0,1,65.47,64c3.89,3.08,1.44,8.77-3.14,9.34-2.09.22-4.74-.6-5.38-2.82A6.79,6.79,0,0,1,61.74,62.71Zm.14.76c-2.88.5-5.49,5.79-2.78,7.7a4.91,4.91,0,0,0,3,.62,4.75,4.75,0,0,0,4.11-4.17C66.21,65.56,64,63.21,61.88,63.47Z"/><path class="cls-4" d="M58.22,56.29c1.4-2.57,4.61-1.66,3.64,1.33C60.86,60.17,56.73,59,58.22,56.29Zm.67.39c-.69,1.37,1.13,1.41,1.48.35C61,55.46,59.5,55.66,58.89,56.68Z"/><path class="cls-4" d="M67.75,59.22a2.49,2.49,0,0,1-2.72,2,2.51,2.51,0,0,1-1.61-3.28C64.71,54.77,68.55,55.77,67.75,59.22ZM67,59.1c.37-2-1.29-2.54-2-.65a1.55,1.55,0,0,0,.4,1.6A1.32,1.32,0,0,0,67,59.1Z"/><path class="cls-4" d="M51,64.77c3.19-2.08,5.37,2,1.95,3.65C49.94,69.48,48.22,66.66,51,64.77Zm.31.69c-2,1.06-.34,2.78,1,2.07A1.58,1.58,0,0,0,53,65.89,1.16,1.16,0,0,0,51.3,65.46Z"/><path class="cls-4" d="M54.9,58.43a1.66,1.66,0,0,1,.52,1.64c-.18,1.56-1.8,3.44-3.42,2.15a2,2,0,0,1-.08-3.11C52.73,58.44,53.94,57.74,54.9,58.43Zm-.3.83c-.31-.28-1.19-.11-1.54.09a1.25,1.25,0,0,0-.4,2.14c.49.55,1.37.08,1.78-.44S55.09,59.71,54.6,59.26Z"/></svg>