<svg id="ui" xmlns="http://www.w3.org/2000/svg" viewBox="0 0 280 280"><defs><style>.cls-1{fill:#35e4da;}.cls-2{fill:#73ede3;}.cls-11,.cls-3,.cls-5{fill:#1a4659;}.cls-10,.cls-3,.cls-4,.cls-5,.cls-6,.cls-8,.cls-9{stroke:#1a4659;stroke-linecap:round;stroke-linejoin:round;}.cls-4,.cls-6,.cls-9{fill:#f9604a;}.cls-4,.cls-5{stroke-width:0.75px;}.cls-6,.cls-8{stroke-width:0.5px;}.cls-10,.cls-7,.cls-8{fill:#fff;}</style></defs><rect class="cls-1" width="280" height="280"/><path class="cls-2" d="M250.69,148.94c-9.34,21.83-33.43,20.69-44.72,36.89-18.06,25.92-41.1,61.26-75.24,57.77-39.52-4-63.07-35.9-69-85.19-4.25-35.19-57-49.7-24.52-96.14C62.5,26.09,93.84,40,119.57,40.4S176.5,12.05,203,29.71c30.1,20,12.43,42.3,29.25,68.07C243,114.2,259.89,127.4,250.69,148.94Z"/><path class="cls-3" d="M240,183.54c3.31-6.57,4.78-22.43-1.91-9.95-5.21,10.7-6.91,26.52-19.83,31.16-5.2,1.46-17.11.3-14.87-7.21,7-8.57,12.61,10,21.4-13.58,3.23-7.3,4.4-16.34,11.09-21.78,5-3.81,13.13-.88,14.69,5.14,1.89,6.9.12,14.76-1.83,21.43C246.23,197.51,234.6,194.32,240,183.54Z"/><path class="cls-3" d="M167,145.16s-36.1,58.43-3.6,73.76h44c26.46-20.6-7.46-73.76-7.46-73.76Z"/><path class="cls-4" d="M185.53,86.71c1.78-.59,6.79,26.78,6.79,26.78L172,110.39S182.65,87.68,185.53,86.71Z"/><path class="cls-5" d="M190.14,106.67c18.31,3.61,36.36,16.14,30.87,35.92-1.13,4.06-7.45,13.75-16.82,15.52-13.5,2.55-34.57-2.9-44.32-19.85C150.45,121.9,171.73,103,190.14,106.67Z"/><path class="cls-5" d="M229.12,103c1.78.56-10.22,25.66-10.22,25.66l-14.6-14.39S226.22,102,229.12,103Z"/><path class="cls-6" d="M189.07,141.78a8.7,8.7,0,0,1-2.61-8.1c4.21,1.33,3.7-4.32,1.13-5.76-2.25-.64-6.64,3.19-3.14,4.9-1.9,2.58-7.51,3.16-6.6,4.5s5.49-1.06,7.23-3.33c0,0-1.81,6,3.53,8.41C189,142.57,189.38,142.08,189.07,141.78Z"/><path class="cls-7" d="M202.59,124.16c2.15-.4,3.92,1.83,2.06,3.41a2.72,2.72,0,0,1-3.41,0C200.25,126.67,201.27,124.51,202.59,124.16Z"/><path class="cls-7" d="M178.5,116.32c2.15-.39,3.92,1.84,2.07,3.42a2.73,2.73,0,0,1-3.42,0C176.16,118.84,177.19,116.68,178.5,116.32Z"/><path class="cls-8" d="M175.3,125.75c-7-3.5-14.9-6.27-22.81-4.89a.41.41,0,0,1-.47-.33c6.76-3.78,17.69.2,23.71,4.57A.39.39,0,0,1,175.3,125.75Z"/><path class="cls-8" d="M172.5,127.71c-6.58-1.86-13.74-2.24-20.26,0a.41.41,0,0,1-.52-.28c5.38-4.26,15-3.37,21.09-.43A.39.39,0,0,1,172.5,127.71Z"/><path class="cls-8" d="M169.92,131.16c-5.69.22-10.73,3.35-15.15,6.72a.39.39,0,0,1-.56-.07c2.47-4.69,10.37-8.53,15.83-7.43A.4.4,0,0,1,169.92,131.16Z"/><path class="cls-8" d="M197.84,133.9C207,134,217,137,222.63,144.51a.39.39,0,0,1-.08.55A.4.4,0,0,1,222,145c-6.32-6.48-15.47-9.09-24.21-10.32A.4.4,0,0,1,197.84,133.9Z"/><path class="cls-8" d="M199.29,137.54c7.92,1.39,15.52,6.27,19.2,13.53a.39.39,0,0,1-.16.53.38.38,0,0,1-.48-.09c-.65-.76-1.15-1.61-1.85-2.32a36.8,36.8,0,0,0-14.15-9.85c-.9-.39-1.84-.72-2.75-1A.39.39,0,0,1,199.29,137.54Z"/><path class="cls-8" d="M199.62,142.46c6.2,3,9.32,10.07,10,16.62a.39.39,0,0,1-.35.43.39.39,0,0,1-.42-.28c-1.81-6-4.44-12.22-9.6-16.07A.39.39,0,0,1,199.62,142.46Z"/><path class="cls-3" d="M86.67,90.4s-7.12,39.69-19,47.89c-12.9,8.92-29.7-10.54-13.23-30.74C72.49,85.44,86.67,90.4,86.67,90.4Z"/><path class="cls-9" d="M120.18,196.86c20.42-11.31,24.22-34.22,25.91-30.79,0,0,3,14.63-9,29.34a32.35,32.35,0,0,1-17.58,10.65Z"/><path class="cls-10" d="M71.78,139.51s-38.55,63.31-3.85,79.92h47c28.25-22.32-8-79.92-8-79.92Z"/><path class="cls-10" d="M100.38,87.9c17.8,3.18,29,20.79,22.74,43-1.3,4.56-7.94,15.61-17.21,18-13.36,3.45-33.78-1.64-42.57-20C54.85,111.16,82.48,84.71,100.38,87.9Z"/><path class="cls-6" d="M92.08,124.55a8.69,8.69,0,0,1-2.61-8.09c4.21,1.33,3.7-4.33,1.13-5.77-2.25-.64-6.64,3.19-3.14,4.91-1.9,2.57-7.51,3.15-6.6,4.5s5.49-1.06,7.23-3.33c0,0-1.81,6,3.53,8.4A.39.39,0,0,0,92.08,124.55Z"/><path class="cls-11" d="M104.8,107.62a2.48,2.48,0,0,1,2.86,1.66,2.28,2.28,0,0,1-.79,1.75,2.72,2.72,0,0,1-3.42,0C102.46,110.13,103.49,108,104.8,107.62Z"/><path class="cls-11" d="M82.36,100.74a2.49,2.49,0,0,1,2.86,1.66,2.3,2.3,0,0,1-.8,1.75,2.71,2.71,0,0,1-3.41,0C80,103.25,81,101.1,82.36,100.74Z"/><path class="cls-3" d="M123.35,107.92s16.21,24,10.73,39.64c-6,17-25.21,14.62-27.59,0C101,114,123.35,107.92,123.35,107.92Z"/><polygon class="cls-11" points="257.93 280 22.07 280 41.99 216.29 238.01 216.29 257.93 280"/></svg>