<svg id="ui" xmlns="http://www.w3.org/2000/svg" viewBox="0 0 134.67 26.38"><defs><style>.cls-1{fill:#f9604a;}.cls-2{fill:#35e4da;}.cls-3{fill:#1a4659;}</style></defs><path class="cls-1" d="M14.07,11.21C18.46,8.39,24.66,10.8,26.45,14c.64,1.12.76,5-.88,7.33-2.36,3.39-7.62,6.31-12.47,4C8.42,23.12,9.66,14,14.07,11.21Z"/><path class="cls-1" d="M2.34,13a3.58,3.58,0,0,1,4.67,1,3.29,3.29,0,0,1-.33,2.77A3.94,3.94,0,0,1,2,18.36C.2,17.53.67,14.1,2.34,13Z"/><path class="cls-1" d="M24.26,2.71c1.95-.51,3,2,2.91,3.85S22.8,9.73,20.53,8.08,21.2,3.5,24.26,2.71Z"/><path class="cls-1" d="M8.11,3.4c1.31.32,1.75,4,1.34,5.42a2.79,2.79,0,0,1-4,1.75c-2-1-2.65-3.21-.89-5.31S7.14,3.16,8.11,3.4Z"/><path class="cls-2" d="M16,1.83c1.58-.5,2.47,2,2.36,3.84S14.85,8.82,13,7.17,13.55,2.62,16,1.83Z"/><path class="cls-3" d="M17.2,11.23a6.68,6.68,0,0,1,5.28,1.87C28,17.47,24.53,25.53,18,26.33c-3,.32-6.7-.85-7.62-4A9.61,9.61,0,0,1,17.2,11.23Zm.19,1.07c-4.08.7-7.77,8.19-3.93,10.9a6.87,6.87,0,0,0,4.28.88c2.88-.33,5.76-3,5.83-5.91S20.42,11.92,17.39,12.3Z"/><path class="cls-3" d="M12.21,2.13c2-3.64,6.53-2.36,5.16,1.88C16,7.62,10.1,5.94,12.21,2.13Zm.95.55c-1,1.94,1.6,2,2.1.49C16.1,1,14,1.24,13.16,2.68Z"/><path class="cls-3" d="M25.71,6.28a3.51,3.51,0,0,1-3.86,2.81,3.56,3.56,0,0,1-2.28-4.64C21.41,0,26.84,1.39,25.71,6.28Zm-1.08-.17c.51-2.84-1.83-3.59-2.9-.92a2.19,2.19,0,0,0,.57,2.26A1.87,1.87,0,0,0,24.63,6.11Z"/><path class="cls-3" d="M2,14.14C6.49,11.2,9.58,17,4.73,19.31.49,20.81-1.95,16.81,2,14.14Zm.43,1c-2.8,1.5-.48,3.93,1.37,2.94a2.24,2.24,0,0,0,1.08-2.34A1.64,1.64,0,0,0,2.41,15.12Z"/><path class="cls-3" d="M7.52,5.16a2.37,2.37,0,0,1,.73,2.33C8,9.7,5.7,12.36,3.4,10.53a2.89,2.89,0,0,1-.11-4.4C4.44,5.18,6.15,4.19,7.52,5.16ZM7.09,6.34c-.44-.4-1.69-.16-2.18.12-1.11.61-1.77,1.68-.58,3,.7.79,2,.12,2.53-.62S7.78,7,7.09,6.34Z"/><path class="cls-3" d="M38.67,8.75h-1.4a2.43,2.43,0,0,1-.18-.88.55.55,0,0,1,.15-.43.67.67,0,0,1,.46-.13h5.07q4.08,0,5.49,1a3.68,3.68,0,0,1,1.41,3.24A4.35,4.35,0,0,1,48,15.16q-1.71,1.32-5.49,1.32H42c0,1.82,0,3.07.05,3.75h1.73a1.78,1.78,0,0,1,.18.78.74.74,0,0,1-.14.51.57.57,0,0,1-.44.15h-6.1a2.3,2.3,0,0,1-.19-.89.54.54,0,0,1,.15-.42.71.71,0,0,1,.47-.13h1q0-1.35,0-7C38.72,11.13,38.7,9.65,38.67,8.75Zm4.24,6a3.92,3.92,0,0,0,2.38-.58,2.36,2.36,0,0,0,.76-2,2.89,2.89,0,0,0-.72-2.1,3,3,0,0,0-2.24-.75,5.23,5.23,0,0,0-1.06.1c0,.45-.05,1.7-.05,3.76v1.58Z"/><path class="cls-3" d="M57,20.86a11.64,11.64,0,0,1-1.8.71,6.38,6.38,0,0,1-1.9.31,3.07,3.07,0,0,1-2.24-.7,2.68,2.68,0,0,1-.71-2,3,3,0,0,1,1.22-2.64,6.73,6.73,0,0,1,3.85-.86h1.15A4.32,4.32,0,0,0,56,13.48a1.52,1.52,0,0,0-1.32-.59,5.14,5.14,0,0,0-1.06.12,4.7,4.7,0,0,1-.43.74,5.27,5.27,0,0,1-.73.19,1,1,0,0,1-.93-.1A2.48,2.48,0,0,1,51,13a2.53,2.53,0,0,1-.28-1,.46.46,0,0,1,.22-.41,5.74,5.74,0,0,1,1.59-.32,24.78,24.78,0,0,1,2.93-.16,5.66,5.66,0,0,1,2.91.63,2.66,2.66,0,0,1,1,2.47V17a11.54,11.54,0,0,0,.2,2.85.56.56,0,0,0,.72.42,1.28,1.28,0,0,1,.15.58.79.79,0,0,1-.56.72,3.91,3.91,0,0,1-1.52.25,1.67,1.67,0,0,1-.66-.11A2.69,2.69,0,0,1,57,20.86Zm-.43-3.49A7.26,7.26,0,0,0,55,17.21a2.12,2.12,0,0,0-1.26.29,1.37,1.37,0,0,0-.38,1.12,1.47,1.47,0,0,0,.37,1.08,1.52,1.52,0,0,0,1.09.36,2.07,2.07,0,0,0,1-.24,1.14,1.14,0,0,0,.57-.69A4.13,4.13,0,0,0,56.55,18Z"/><path class="cls-3" d="M78.24,12.82c-.19.53-.67,2-1.45,4.41a18,18,0,0,1-1.62,4.14,1.71,1.71,0,0,1-1.35.51,3.86,3.86,0,0,1-1.68-.17c-.08-.11-.37-1.41-.89-3.91a19.77,19.77,0,0,0-.91-3.74,17.89,17.89,0,0,0-.89,3.4,12.75,12.75,0,0,1-1.2,3.91,1.59,1.59,0,0,1-1.26.51,6.07,6.07,0,0,1-2.16-.17A27.13,27.13,0,0,1,64,18.32c-.47-2.15-.78-3.49-.93-4a9.45,9.45,0,0,0-.4-1.15.87.87,0,0,0-.37-.45,2,2,0,0,0-.71-.09,1.81,1.81,0,0,1-.19-.83.55.55,0,0,1,.38-.6,11.61,11.61,0,0,1,2.13-.11,4.29,4.29,0,0,1,1.21.12.81.81,0,0,1,.51.46A8,8,0,0,1,66,13.21c.13.82.33,2.07.61,3.77a9.54,9.54,0,0,0,.56,2.54A17.33,17.33,0,0,0,68,16.16q.75-3.36,1.07-5a16.46,16.46,0,0,1,3,0,.81.81,0,0,1,.52.45,9,9,0,0,1,.33,1.5c.12.78.36,2,.72,3.77a10.08,10.08,0,0,0,.67,2.6,12.5,12.5,0,0,0,.81-2.88c.44-1.93.69-3.2.75-3.82h-.66A1.61,1.61,0,0,1,75,12a.92.92,0,0,1,.16-.59.7.7,0,0,1,.54-.18h3.18a1.63,1.63,0,0,1,.18.75.85.85,0,0,1-.18.63.85.85,0,0,1-.62.17Z"/><path class="cls-3" d="M85.47,11a7.85,7.85,0,0,1,2.45.3c.57.2.86.54.86,1a2.47,2.47,0,0,1-.6,1.52,9.58,9.58,0,0,0-3.48-1,1.58,1.58,0,0,0-1,.24.86.86,0,0,0-.31.7,1,1,0,0,0,.42.82,7.7,7.7,0,0,0,1.92.88,6.87,6.87,0,0,1,2.5,1.32A2.49,2.49,0,0,1,89,18.62,2.72,2.72,0,0,1,87.72,21a6.32,6.32,0,0,1-3.49.84,10.32,10.32,0,0,1-2.89-.28,1.13,1.13,0,0,1-.87-1.15A2,2,0,0,1,81,19.17a9.79,9.79,0,0,0,3.72.89,2,2,0,0,0,1-.22.8.8,0,0,0,.37-.74,1.06,1.06,0,0,0-.65-1,17.85,17.85,0,0,0-2.08-.91A6,6,0,0,1,81.18,16a2.38,2.38,0,0,1-.66-1.74,2.75,2.75,0,0,1,1.31-2.38A6.42,6.42,0,0,1,85.47,11Z"/><path class="cls-3" d="M94.91,20.23h1.24a1.66,1.66,0,0,1,.18.78.69.69,0,0,1-.15.51.87.87,0,0,1-.6.15h-5a2.18,2.18,0,0,1-.18-.83.63.63,0,0,1,.15-.47.71.71,0,0,1,.48-.14h.86c0-.9,0-1.86,0-2.87,0-1.55,0-2.58,0-3.09a4.26,4.26,0,0,0-.16-1.12.65.65,0,0,0-.39-.44,2.48,2.48,0,0,0-.77-.09,1.25,1.25,0,0,1-.18-.68.67.67,0,0,1,.49-.73,9.12,9.12,0,0,1,2-.13,8.66,8.66,0,0,1,1.52.08c.27.06.42.17.46.33a3.14,3.14,0,0,1,.06.69v5.18C94.85,18.37,94.87,19.33,94.91,20.23ZM93,9.71a2.07,2.07,0,0,1-1.36-.36,1.31,1.31,0,0,1-.42-1,1.41,1.41,0,0,1,.53-1.14,2.33,2.33,0,0,1,1.53-.45,2.09,2.09,0,0,1,1.43.39,1.28,1.28,0,0,1,.42,1,1.47,1.47,0,0,1-.51,1.14A2.38,2.38,0,0,1,93,9.71Z"/><path class="cls-3" d="M97.79,11.27h.74l1-3.17a4.38,4.38,0,0,1,1,.41,2.07,2.07,0,0,1,.7.58,3.45,3.45,0,0,1,.23,1.61v.57h3.56a2.21,2.21,0,0,1,.18.89.73.73,0,0,1-.15.54.88.88,0,0,1-.57.13h-3V17a6.42,6.42,0,0,0,.31,2.46,1.08,1.08,0,0,0,1,.68,3.61,3.61,0,0,0,1.73-.5,1.5,1.5,0,0,1,.31.94,1,1,0,0,1-.75,1,8.24,8.24,0,0,1-2.34.25,3.58,3.58,0,0,1-2.48-.7,3.65,3.65,0,0,1-.74-2.69V16.56c0-1.16,0-2.4-.11-3.73H97.36a2.25,2.25,0,0,1-.19-.91.76.76,0,0,1,.14-.51A.66.66,0,0,1,97.79,11.27Z"/><path class="cls-3" d="M110.6,20.23h1.24A1.66,1.66,0,0,1,112,21a.69.69,0,0,1-.15.51.86.86,0,0,1-.59.15h-5a2.18,2.18,0,0,1-.18-.83.68.68,0,0,1,.14-.47.71.71,0,0,1,.48-.14h.86c0-.9,0-1.86,0-2.87q0-2.32,0-3.09a4.18,4.18,0,0,0-.17-1.12.65.65,0,0,0-.39-.44,2.45,2.45,0,0,0-.76-.09,1.25,1.25,0,0,1-.18-.68.67.67,0,0,1,.48-.73,9.12,9.12,0,0,1,2-.13,8.66,8.66,0,0,1,1.52.08c.27.06.42.17.46.33a3.14,3.14,0,0,1,.06.69v5.18C110.55,18.37,110.57,19.33,110.6,20.23ZM108.68,9.71a2.1,2.1,0,0,1-1.37-.36,1.31,1.31,0,0,1-.42-1,1.44,1.44,0,0,1,.53-1.14A2.33,2.33,0,0,1,109,6.73a2.09,2.09,0,0,1,1.43.39,1.28,1.28,0,0,1,.42,1,1.49,1.49,0,0,1-.5,1.14A2.41,2.41,0,0,1,108.68,9.71Z"/><path class="cls-3" d="M120.76,12.82h-.57A1.71,1.71,0,0,1,120,12a.93.93,0,0,1,.15-.59.68.68,0,0,1,.53-.18h3.19a1.64,1.64,0,0,1,.19.75.85.85,0,0,1-.18.63.88.88,0,0,1-.63.17h-.07c-.24.53-.77,2-1.61,4.41a20.11,20.11,0,0,1-1.69,4.13,1.87,1.87,0,0,1-1.52.52,4.57,4.57,0,0,1-1.83-.17c-.08-.11-.46-1.26-1.12-3.44s-1.09-3.53-1.26-4-.31-.86-.41-1.1a.79.79,0,0,0-.36-.44,2,2,0,0,0-.72-.09,2.54,2.54,0,0,1-.19-.88.52.52,0,0,1,.39-.53,11.55,11.55,0,0,1,2.41-.13,3.48,3.48,0,0,1,1.1.12.83.83,0,0,1,.46.46,8.57,8.57,0,0,1,.35,1.55c.13.82.42,2.07.87,3.77a10.7,10.7,0,0,0,.82,2.54,12.82,12.82,0,0,0,1-2.88A35.47,35.47,0,0,0,120.76,12.82Z"/><path class="cls-3" d="M130.45,11a4.36,4.36,0,0,1,3.18,1,4.32,4.32,0,0,1,1,3.14,2.21,2.21,0,0,1-.42,1.52,2.66,2.66,0,0,1-1.85.45h-3.91a3.67,3.67,0,0,0,.62,2.16,2.41,2.41,0,0,0,2.07.79,6.2,6.2,0,0,0,3-.84,1.57,1.57,0,0,1,.55,1.15c0,.57-.41,1-1.24,1.18a11.29,11.29,0,0,1-2.9.33,6.14,6.14,0,0,1-4.15-1.16,4.91,4.91,0,0,1-1.3-3.82,6.12,6.12,0,0,1,1.46-4.33A5.1,5.1,0,0,1,130.45,11ZM130,12.78a1.33,1.33,0,0,0-1.19.63,4.42,4.42,0,0,0-.42,2.2H129a16,16,0,0,0,1.78-.07c.41,0,.65-.12.72-.23a1,1,0,0,0,.11-.54,2.36,2.36,0,0,0-.41-1.47A1.38,1.38,0,0,0,130,12.78Z"/></svg>