<svg id="ui" xmlns="http://www.w3.org/2000/svg" viewBox="0 0 173.6 301.68"><defs><style>.cls-1{fill:#f9604a;stroke:#1a4659;stroke-linecap:round;stroke-linejoin:round;}</style></defs>
<path class="cls-1" d="M74.8,268.71C74.16,272,80,286,74.8,290c-4.32,3.11-.65,7.14-1.94,11.23-6.23-5.48-5.08-4.39-13-3.8-2.48-1.24.77-5.84-2.07-6.4,4.75-40.88-29.61-27.29-38.87-55.61-6.06-12.5-.6-30.53-16.83-35.77-2.06-1.38-2.31-3.31-.35-4.77C8.48,190.62,3.24,182.72,7,177.2c8-16.67-3.09-36.48,12.06-51.83C36.28,97.78,62.82,67.6,76.68,42.9c10.88-27.49,26.52-21,43.94-32.37,2.24-10.1,16.77-13.95,21.91-4.82.85,1.07.8,3.54,3.25,1.51,1.5,7.07,8.48,3.08,12.58,7.85,1.38.27,7.49-.16,8.68.95-2.67,5.85-.35,8.88,6,10C149.26,41.1,160.4,47.56,162.56,66.27c-6.05,8.35-7.55,18.85-12.62,27.24-4,2-5.84,4.88-5.17,9.21-.89,2.76-7,4.41-3,7.86-2.46,22.1-10,48.63-19.4,71.31-1.78,10.33-5.48,22-15,29-6.34,6.88-3,14.65-15.34,21C82.7,239.75,79.07,259.54,74.8,268.71Z"/>
</svg>