<svg id="ui" xmlns="http://www.w3.org/2000/svg" viewBox="100 50 130 250"><defs><style>.cls-1{fill:#f9604a;stroke:#1a4659;stroke-linecap:round;stroke-linejoin:round;}</style></defs><path fill="#f9604a" stroke="#ffffff" d="M499.6,893.2L497.8,894.6L497.40000000000003,893.5L499.8,890.4L500.7,888L501.8,886.5L502.40000000000003,887L502.50000000000006,888.1L501.1000000000001,890.1L499.6000000000001,893.2ZM501.8,880.6L501.1,879.9L503.1,876.1L504,875.7L503.5,877.6L501.8,880.6ZM506.7,871.6L506.59999999999997,867.2L507.09999999999997,867.6L507.2,870.5L506.7,871.6ZM508.09999999999997,861.9L507.29999999999995,863.5L506.79999999999995,861.5L508.09999999999997,861.9ZM506.79999999999995,855.8L506.29999999999995,857.0999999999999L504.99999999999994,854.9999999999999L506.79999999999995,855.7999999999998ZM476.99999999999994,856.8L473.79999999999995,858.4L477.59999999999997,853L491.49999999999994,838.9L502.09999999999997,825.4L504.59999999999997,824.6L495.59999999999997,839.3000000000001L491.09999999999997,843.8000000000001L488.2,847.3000000000001L484.4,851.1L481.4,853.2L477,856.8000000000001ZM666.5,805.6999999999999L672.6,806.4L679.4,809L683.5,810.2L688.6,813L688.3000000000001,818.3L685.3000000000001,823.4L686.5000000000001,828.1999999999999L689.2000000000002,834.6999999999999L689.6000000000001,840.5999999999999L690.7000000000002,844.3999999999999L698.3000000000002,845.7999999999998L723.9000000000002,845.9999999999999L724.8000000000002,846.1999999999999L706.3000000000002,855.5999999999999L697.8000000000002,862.3999999999999L694.2000000000002,869.1999999999998L690.0000000000001,874.1999999999998L682.3000000000001,878.4999999999998L674.4000000000001,884.5999999999998L669.9000000000001,889.9999999999998L657.6000000000001,897.2999999999997L651.8000000000002,897.8999999999997L644.9000000000002,897.1999999999997L641.3000000000002,900.6999999999997L641.2000000000002,905.6999999999997L642.6000000000001,910.1999999999997L643.6000000000001,916.8999999999997L635.2000000000002,915.8999999999997L631.5000000000001,914.7999999999997L626.5000000000001,915.3999999999997L621.2000000000002,917.7999999999997L617.4000000000002,917.7999999999997L612.9000000000002,914.2999999999997L611.3000000000002,909.6999999999997L613.1000000000001,895.4999999999997L612.1000000000001,887.9999999999997L602.2000000000002,877.8999999999996L600.5000000000001,872.7999999999996L598.4000000000001,868.5999999999996L594.4000000000001,866.1999999999996L587.2,863.7999999999996L578.7,864.2999999999996L563.5,867.0999999999996L555.7,870.5999999999996L549.6,875.1999999999996L544.9,879.9999999999995L538.3,885.0999999999996L532.5,888.6999999999996L530,893.5999999999996L523.8,896.3999999999995L516.5999999999999,894.5999999999996L507.69999999999993,893.2999999999996L502.49999999999994,891.2999999999996L506.29999999999995,890.9999999999997L509.59999999999997,889.5999999999997L510.99999999999994,890.0999999999997L510.09999999999997,886.8999999999996L507.9,888.4999999999997L506.09999999999997,887.9999999999997L503.59999999999997,887.8999999999996L503.59999999999997,884.5999999999997L505.99999999999994,878.9999999999997L509.69999999999993,878.6999999999997L515.0999999999999,878.7999999999997L511.3999999999999,868.2999999999997L507.2999999999999,860.2999999999997L509.1999999999999,856.5999999999997L509.1999999999999,854.6999999999997L506.09999999999985,853.1999999999997L506.49999999999983,851.3999999999997L508.29999999999984,849.3999999999997L509.1999999999998,846.7999999999997L513.1999999999998,841.5999999999997L504.6999999999998,842.0999999999997L504.49999999999983,833.3999999999996L516.0999999999998,831.9999999999997L524.3999999999997,836.6999999999997L530.4999999999998,836.7999999999997L534.3999999999997,833.5999999999997L536.0999999999998,828.6999999999997L538.1999999999998,825.6999999999997L543.4999999999998,824.8999999999997L550.4999999999998,819.1999999999997L554.8999999999997,816.7999999999997L558.6999999999997,812.9999999999998L574.9999999999997,803.5999999999998L582.1999999999997,801.5999999999998L594.7999999999997,799.2999999999998L601.6999999999997,798.8999999999999L606.9999999999997,803.4999999999999L611.9999999999997,809.3999999999999L624.5999999999997,813.9999999999999L628.2999999999997,813.4999999999999L636.5999999999997,811.0999999999999L641.2999999999997,814.4999999999999L643.6999999999997,818.3999999999999L649.9999999999997,817.7999999999998L661.6999999999997,815.3999999999999L665.6999999999997,814.0999999999999L665.6999999999997,810.6999999999999L665.9999999999997,805.6999999999999L666.4999999999997,805.6999999999999ZM573.8,836.4999999999999L570,840.5999999999999L570.9,846.1999999999999L577,848.5999999999999L584,853.0999999999999L591.3,854.8L598.0999999999999,852.0999999999999L602.5999999999999,851.4999999999999L605.5999999999999,849.2999999999998L603.0999999999999,842.4999999999999L600.5999999999999,838.4999999999999L596.4999999999999,836.2999999999998L590.8999999999999,834.1999999999998L583.0999999999999,834.8999999999999L573.8,836.4999999999999Z" class="sm_state sm_state_TWN1170" opacity="1" stroke-opacity="1" stroke-width="2.203790625000001" stroke-linejoin="round" transform="matrix(0.2297,0,0,0.2297,0,0)" style="-webkit-tap-highlight-color: rgba(0, 0, 0, 0); opacity: 1; cursor: pointer; stroke-opacity: 1; stroke-linejoin: round; fill-opacity: 1;" fill-opacity="1"></path><path fill="#f9604a" stroke="#ffffff" d="M573.8,836.5L583.0999999999999,834.9L590.8999999999999,834.1999999999999L596.4999999999999,836.3L600.5999999999999,838.5L603.0999999999999,842.5L605.5999999999999,849.3L602.5999999999999,851.5L598.0999999999999,852.1L591.3,854.8000000000001L584,853.1L577,848.6L570.9,846.2L570,840.6L573.8,836.5Z" class="sm_state sm_state_TWN1171" opacity="1" stroke-opacity="1" stroke-width="2.203790625000001" stroke-linejoin="round" transform="matrix(0.2297,0,0,0.2297,0,0)" style="-webkit-tap-highlight-color: rgba(0, 0, 0, 0); opacity: 1; cursor: pointer; stroke-opacity: 1; stroke-linejoin: round; fill-opacity: 1;" fill-opacity="1"></path><path fill="#f9604a" stroke="#ffffff" d="M935.4,601.5L936,602.3L937.6,605.1999999999999L937.8000000000001,606.3L936.4000000000001,608.6999999999999L930.6000000000001,614.4L924.4000000000001,623L919.7,626.7L918.3000000000001,628.7L919.0000000000001,630.8000000000001L918.1000000000001,632.3000000000001L911.5000000000001,637.4000000000001L909.0000000000001,639.8000000000001L906.2000000000002,645.8000000000001L903.3000000000002,658.0000000000001L895.9000000000002,668.9000000000001L894.4000000000002,673.3000000000001L894.6000000000003,678.0000000000001L896.4000000000002,683.2000000000002L897.9000000000002,685.5000000000001L899.2000000000002,686.5000000000001L900.0000000000001,687.9000000000001L900.1000000000001,691.1000000000001L899.0000000000001,694.7000000000002L895.3000000000001,700.5000000000001L894.6,704.0000000000001L894.2,710.4000000000001L891,726.7L884.6,743.7L876.6,783.8000000000001L871.8000000000001,793.6L860.8000000000001,857.7L857.3000000000001,856.7L846.5000000000001,861.9000000000001L842.6000000000001,867.3000000000001L844.3000000000002,874.2L844.9000000000002,881.1L841.3000000000002,888L837.9000000000002,893.2L835.2000000000002,899.8000000000001L832.8000000000002,908.2L829.1000000000001,915.9000000000001L824.3000000000002,929.1000000000001L821.2000000000002,935.2000000000002L821.3000000000002,941.9000000000002L820.4000000000002,948.1000000000003L813.9000000000002,951.8000000000003L805.7000000000002,950.7000000000003L794.0000000000001,941.0000000000002L784.8000000000001,925.0000000000002L779.1,923.5000000000002L772.8000000000001,922.6000000000003L767.8000000000001,917.8000000000003L761.7,914.9000000000003L753.9000000000001,912.1000000000004L748.9000000000001,904.0000000000003L747.7,896.6000000000004L747.4000000000001,894.1000000000004L744.6000000000001,886.5000000000003L738.3000000000002,881.3000000000003L732.7000000000002,877.7000000000003L731.7000000000002,873.7000000000003L733.1000000000001,870.5000000000002L738.7000000000002,868.1000000000003L741.7000000000002,863.1000000000003L739.8000000000002,857.3000000000003L745.8000000000002,853.8000000000003L748.9000000000002,851.0000000000003L747.2000000000002,844.8000000000003L748.7000000000002,842.1000000000003L750.2000000000002,838.1000000000003L755.4000000000002,834.2000000000003L762.8000000000002,832.6000000000003L770.2000000000002,832.3000000000003L775.5000000000001,827.6000000000003L776.8000000000001,819.1000000000003L780.8000000000001,813.9000000000002L788.4000000000001,811.1000000000003L792.9000000000001,808.0000000000002L794.5000000000001,802.9000000000002L797.7000000000002,790.3000000000002L798.9000000000002,781.9000000000002L798.0000000000002,774.7000000000002L796.8000000000002,769.3000000000002L793.6000000000001,765.2000000000002L791.5000000000001,761.2000000000002L797.2000000000002,751.8000000000002L797.4000000000002,748.1000000000001L799.9000000000002,741.1000000000001L803.8000000000002,732.6000000000001L806.8000000000002,723.8000000000002L808.4000000000002,713.9000000000002L809.0000000000002,706.3000000000002L807.2000000000003,701.8000000000002L805.2000000000003,698.5000000000002L807.5000000000002,690.9000000000002L812.6000000000003,680.2000000000002L820.6000000000003,669.8000000000002L820.9000000000002,665.9000000000002L819.4000000000002,661.4000000000002L814.2000000000002,658.0000000000002L811.3000000000002,654.9000000000002L811.1000000000001,645.0000000000002L814.8000000000002,642.1000000000003L821.4000000000002,639.9000000000002L826.6000000000003,637.5000000000002L826.4000000000002,633.8000000000002L825.0000000000002,627.6000000000001L827.8000000000002,625.6000000000001L829.0000000000002,623.5000000000001L832.4000000000002,621.8000000000001L835.5000000000002,618.0000000000001L836.8000000000002,612.9000000000001L839.8000000000002,607.9000000000001L847.3000000000002,603.2L849.7000000000002,597L850.1000000000001,592.8L854.8000000000002,587.9L857.3000000000002,590L863.8000000000002,593.1L878.8000000000002,596.9L887.1000000000001,600.1L893.6000000000001,600.1L898.5000000000001,595.6L900.9000000000001,589.6L904.7,588.7L923.2,599.8000000000001L934.3000000000001,601.5000000000001L935.4000000000001,601.5000000000001Z" class="sm_state sm_state_TWN1172" opacity="1" stroke-opacity="1" stroke-width="2.203790625000001" stroke-linejoin="round" transform="matrix(0.2297,0,0,0.2297,0,0)" style="-webkit-tap-highlight-color: rgba(0, 0, 0, 0); opacity: 1; cursor: pointer; stroke-opacity: 1; stroke-linejoin: round; fill-opacity: 1;" fill-opacity="1"></path><path fill="#f9604a" stroke="#ffffff" d="M825,627.6L826.4,633.8000000000001L826.6,637.5000000000001L821.4,639.9000000000001L814.8,642.1000000000001L811.0999999999999,645.0000000000001L811.3,654.9000000000001L814.1999999999999,658.0000000000001L819.4,661.4000000000001L820.9,665.9000000000001L820.6,669.8000000000001L812.6,680.2L807.5,690.9000000000001L805.2,698.5000000000001L807.2,701.8000000000001L809,706.3000000000001L808.4,713.9000000000001L806.8,723.8000000000001L803.8,732.6L799.9,741.1L797.4,748.1L797.1999999999999,751.8000000000001L791.4999999999999,761.2L793.5999999999999,765.2L796.8,769.3000000000001L798,774.7L798.9,781.9000000000001L797.6999999999999,790.3000000000001L794.4999999999999,802.9000000000001L792.8999999999999,808.0000000000001L788.3999999999999,811.1000000000001L780.7999999999998,813.9000000000001L776.7999999999998,819.1000000000001L775.4999999999999,827.6000000000001L770.1999999999999,832.3000000000002L762.8,832.6000000000001L755.4,834.2000000000002L750.1999999999999,838.1000000000001L748.6999999999999,842.1000000000001L747.1999999999999,844.8000000000002L748.9,851.0000000000002L745.8,853.8000000000002L739.8,857.3000000000002L739.0999999999999,855.3000000000002L734.8999999999999,849.4000000000002L729.0999999999999,847.2000000000002L724.8,846.2000000000002L723.9,846.0000000000001L698.3,845.8000000000001L690.6999999999999,844.4000000000001L689.5999999999999,840.6000000000001L689.1999999999999,834.7000000000002L686.4999999999999,828.2000000000002L685.2999999999998,823.4000000000002L688.2999999999998,818.3000000000002L688.5999999999998,813.0000000000002L683.4999999999998,810.2000000000003L679.3999999999997,809.0000000000002L672.5999999999998,806.4000000000002L666.4999999999998,805.7000000000002L663.8999999999997,802.2000000000002L655.6999999999997,803.1000000000001L648.8999999999997,805.1000000000001L643.0999999999998,802.6000000000001L639.0999999999998,797.9000000000001L639.9999999999998,792.2L641.8999999999997,787L640.8999999999997,779.3L641.8999999999997,772.0999999999999L643.8999999999997,767.3999999999999L641.9999999999998,760.1999999999998L644.3999999999997,758.5999999999998L646.8999999999997,756.2999999999998L650.6999999999997,754.7999999999998L651.6999999999997,751.2999999999998L646.0999999999997,748.3999999999999L642.1999999999997,746.9999999999999L638.5999999999997,743.6999999999999L636.4999999999997,737.4L637.3999999999996,724L638.5999999999997,717.4L638.6999999999997,711.6999999999999L640.2999999999997,706.3L642.2999999999997,701.6999999999999L641.7999999999997,697.6999999999999L642.9999999999998,694.8L647.2999999999997,693.1999999999999L647.1999999999997,689.5999999999999L651.4999999999997,689.8L669.3999999999996,692.3L673.5999999999997,691.6999999999999L678.5999999999997,686.9L686.1999999999997,672.5L689.8999999999997,664L696.2999999999997,661L706.3999999999997,662.4L712.3999999999997,662.1999999999999L718.1999999999997,654.4999999999999L721.1999999999997,652.5999999999999L730.0999999999997,659.3L733.5999999999997,658.4L736.1999999999997,652.9L740.8999999999997,649L747.4999999999998,649.1L752.4999999999998,647.2L760.3999999999997,639.6L765.4999999999998,636.7L769.8999999999997,635.9000000000001L778.6999999999997,631.2L784.8999999999997,631L791.1999999999997,630L802.2999999999997,625.6L806.8999999999997,625.3000000000001L811.5999999999998,626.3000000000001L824.9999999999998,627.6Z" class="sm_state sm_state_TWN1173" opacity="1" stroke-opacity="1" stroke-width="2.203790625000001" stroke-linejoin="round" transform="matrix(0.2297,0,0,0.2297,0,0)" style="-webkit-tap-highlight-color: rgba(0, 0, 0, 0); opacity: 1; cursor: pointer; stroke-opacity: 1; stroke-linejoin: round; fill-opacity: 1;" fill-opacity="1"></path><path fill="#f9604a" stroke="#ffffff" d="M803.7,570.5L804.5,569.9L815.1,568.9L817.9,569.6999999999999L821.5,570.6999999999999L820.9,576.1999999999999L822.3,579.9999999999999L827.1999999999999,580.9999999999999L831.5999999999999,583.5999999999999L835.3,586.0999999999999L839.3,585.4999999999999L844,583.1999999999999L848.9,583.1999999999999L854.8,587.9L850.0999999999999,592.8L849.6999999999999,597L847.3,603.2L839.8,607.9000000000001L836.8,612.9000000000001L835.5,618.0000000000001L832.4,621.8000000000001L829,623.5000000000001L827.8,625.6000000000001L825,627.6000000000001L811.6,626.3000000000002L806.9,625.3000000000002L802.3,625.6000000000001L791.1999999999999,630.0000000000001L784.9,631.0000000000001L778.6999999999999,631.2000000000002L769.9,635.9000000000002L765.5,636.7000000000002L760.4,639.6000000000001L752.5,647.2000000000002L747.5,649.1000000000001L740.9,649.0000000000001L736.1999999999999,652.9000000000001L733.5999999999999,658.4000000000001L730.0999999999999,659.3000000000001L721.1999999999999,652.6L718.1999999999999,654.5L712.4,662.2L706.4,662.4000000000001L696.3,661.0000000000001L689.9,664.0000000000001L686.1999999999999,672.5000000000001L678.5999999999999,686.9000000000001L673.5999999999999,691.7L669.3999999999999,692.3000000000001L651.4999999999999,689.8000000000001L647.1999999999999,689.6L647.1999999999999,688.2L641.8,684.7L637.5,683.9000000000001L636.3,680.6000000000001L636.1999999999999,676.6000000000001L634.1999999999999,672.6000000000001L630.9999999999999,667.6000000000001L626.6999999999999,664.0000000000001L614.8,660.5000000000001L610.3,655.1000000000001L609.3,647.5000000000001L606.5999999999999,641.2000000000002L602.5999999999999,637.7000000000002L596.8,635.8000000000002L597.4,635.0000000000002L598.1999999999999,631.7000000000003L601.4999999999999,629.0000000000002L603.6999999999999,622.5000000000002L606.4,610.2000000000003L615.6999999999999,594.1000000000003L618.4999999999999,584.2000000000003L621.8999999999999,578.7000000000003L635.1999999999998,563.9000000000003L644.3999999999999,578.2000000000003L649.0999999999999,583.2000000000003L655.3999999999999,588.7000000000003L670.4999999999999,599.8000000000003L677.7999999999998,603.4000000000003L684.3999999999999,604.6000000000004L695.9999999999999,611.3000000000004L708.0999999999999,610.6000000000004L713.3,607.8000000000004L714.1999999999999,600.4000000000004L719.6999999999999,597.1000000000005L729.5999999999999,597.9000000000004L735.5999999999999,600.3000000000004L740.5999999999999,605.9000000000004L745.9999999999999,608.0000000000005L754.8999999999999,603.3000000000004L761.6999999999998,600.4000000000004L773.2999999999998,591.2000000000004L779.1999999999998,588.0000000000003L783.7999999999998,583.6000000000004L787.9999999999999,580.6000000000004L793.2999999999998,580.7000000000004L798.1999999999998,578.7000000000004L799.9999999999998,573.1000000000004L803.6999999999998,570.5000000000003Z" class="sm_state sm_state_TWN1174" opacity="1" stroke-opacity="1" stroke-width="2.203790625000001" stroke-linejoin="round" transform="matrix(0.2297,0,0,0.2297,0,0)" style="-webkit-tap-highlight-color: rgba(0, 0, 0, 0); opacity: 1; cursor: pointer; stroke-opacity: 1; stroke-linejoin: round; fill-opacity: 1;" fill-opacity="1"></path><path fill="#f9604a" stroke="#ffffff" d="M642,760.2L643.9,767.4000000000001L641.9,772.1000000000001L640.9,779.3000000000002L641.9,787.0000000000002L640,792.2000000000003L639.1,797.9000000000003L643.1,802.6000000000004L648.9,805.1000000000004L655.6999999999999,803.1000000000004L663.9,802.2000000000004L666.5,805.7000000000004L666,805.7000000000004L665.7,810.7000000000004L665.7,814.1000000000004L661.7,815.4000000000003L650,817.8000000000003L643.7,818.4000000000003L641.3000000000001,814.5000000000003L636.6,811.1000000000004L628.3000000000001,813.5000000000003L624.6,814.0000000000003L612,809.4000000000003L607,803.5000000000003L601.7,798.9000000000003L594.8000000000001,799.3000000000003L582.2,801.6000000000003L575,803.6000000000003L558.7,813.0000000000002L554.9000000000001,816.8000000000002L550.5000000000001,819.2000000000002L543.5000000000001,824.9000000000002L538.2000000000002,825.7000000000002L536.1000000000001,828.7000000000002L534.4000000000001,833.6000000000001L530.5000000000001,836.8000000000002L524.4000000000001,836.7000000000002L516.1000000000001,832.0000000000001L504.5000000000001,833.4000000000001L509.10000000000014,828.2L508.90000000000015,811.8000000000001L509.60000000000014,799.5000000000001L512.4000000000001,789.7000000000002L516.7,782.0000000000001L518,772.0000000000001L520.3,763.2000000000002L521.5999999999999,760.2000000000002L527.6999999999999,752.1000000000001L528.8,749.3000000000002L529.5,747.8000000000002L535.1,743.5000000000002L535.9,741.9000000000002L543.5,746.3000000000002L565.5,743.7000000000002L573.1,744.1000000000001L579.7,745.9000000000001L591.3000000000001,750.3000000000001L611.0000000000001,752.6L623.2000000000002,758.6L629.0000000000001,758.5L641.0000000000001,760.9L642.0000000000001,760.1999999999999Z" class="sm_state sm_state_TWN1176" opacity="1" stroke-opacity="1" stroke-width="2.203790625000001" stroke-linejoin="round" transform="matrix(0.2297,0,0,0.2297,0,0)" style="-webkit-tap-highlight-color: rgba(0, 0, 0, 0); opacity: 1; cursor: pointer; stroke-opacity: 1; stroke-linejoin: round; fill-opacity: 1;" fill-opacity="1"></path><path fill="#f9604a" stroke="#ffffff" d="M889.2,1263L883.7,1264.7L876.4000000000001,1261.8L869.6000000000001,1257L865.7000000000002,1253.3L866.9000000000002,1250.6L866.8000000000002,1248.1L865.8000000000002,1245.6999999999998L864.1000000000001,1243.6L883.6000000000001,1243.6L883.6000000000001,1245.3999999999999L882.3000000000002,1248.8999999999999L881.9000000000002,1251.8L882.8000000000002,1254.3L887.5000000000002,1257.8L889.5000000000002,1260.3L889.2000000000003,1263ZM865.2,1085.4L865.1,1086.5L861.7,1086.1L861.3000000000001,1085.5L858.6,1084.5L855.8000000000001,1079.6L854.4000000000001,1075.3L855.0000000000001,1074.7L865.0000000000001,1074L866.1000000000001,1074.6L866.9000000000001,1076.6L866.1000000000001,1080.5L865.2000000000002,1082.1L864.8000000000002,1083.8L865.2000000000002,1085.3999999999999ZM702.1,1199.5L697.6,1199.8L687.4,1195.1L682.8,1190.1999999999998L679.5999999999999,1184.2999999999997L678.9999999999999,1178.1999999999998L679.0999999999999,1172.4999999999998L675.9999999999999,1168.0999999999997L672.5999999999999,1166.3999999999996L669.8999999999999,1162.4999999999995L670.3999999999999,1157.9999999999995L672.4999999999999,1154.0999999999995L677.7999999999998,1150.8999999999994L680.2999999999998,1147.0999999999995L675.6999999999998,1141.4999999999995L673.0999999999998,1136.4999999999995L673.0999999999998,1131.0999999999995L671.9999999999998,1123.9999999999995L669.9999999999998,1117.8999999999996L668.7999999999997,1111.3999999999996L669.5999999999997,1096.6999999999996L672.5999999999997,1089.1999999999996L676.2999999999997,1082.5999999999997L678.6999999999997,1075.9999999999998L684.0999999999997,1071.4999999999998L691.6999999999997,1069.8999999999999L696.4999999999997,1067.1999999999998L706.2999999999996,1063.1L708.2999999999996,1058.1L708.3999999999996,1052.8999999999999L711.1999999999996,1039.1L705.6999999999996,1035.5L700.2999999999996,1034.2L699.5999999999996,1029.3L696.0999999999996,1022.6999999999999L699.9999999999995,1022.1999999999999L698.7999999999995,1017.3L692.5999999999995,1010.9L689.5999999999995,1006.3L688.2999999999995,998.1999999999999L690.5999999999995,988.4L699.0999999999995,981.1999999999999L703.3999999999994,975.3L703.4999999999994,964.0999999999999L706.4999999999994,950.8999999999999L704.3999999999994,940.9999999999999L705.1999999999994,934.0999999999999L712.5999999999993,930.0999999999999L715.2999999999994,925.1999999999999L712.9999999999994,919.1999999999999L713.8999999999994,913.4999999999999L721.6999999999994,908.3999999999999L725.6999999999994,904.4999999999999L732.0999999999993,900.3999999999999L747.6999999999994,896.5999999999999L748.8999999999994,903.9999999999999L753.8999999999994,912.0999999999999L761.6999999999994,914.8999999999999L767.7999999999994,917.7999999999998L772.7999999999994,922.5999999999998L779.0999999999993,923.4999999999998L784.7999999999994,924.9999999999998L793.9999999999994,940.9999999999998L805.6999999999995,950.6999999999998L813.8999999999995,951.7999999999998L820.3999999999995,948.0999999999998L821.2999999999995,941.8999999999997L821.1999999999995,935.1999999999997L824.2999999999995,929.0999999999997L829.0999999999995,915.8999999999996L832.7999999999995,908.1999999999996L835.1999999999995,899.7999999999996L837.8999999999995,893.1999999999996L841.2999999999995,887.9999999999995L844.8999999999995,881.0999999999996L844.2999999999995,874.1999999999996L842.5999999999995,867.2999999999996L846.4999999999994,861.8999999999996L857.2999999999994,856.6999999999996L860.7999999999994,857.6999999999996L856.1999999999994,884.0999999999996L853.9999999999993,888.9999999999995L846.8999999999993,898.3999999999995L844.2999999999993,903.2999999999995L842.1999999999992,909.3999999999995L840.6999999999992,920.7999999999995L840.8999999999993,930.9999999999995L839.8999999999993,940.6999999999996L834.9999999999993,950.5999999999996L832.8999999999993,952.6999999999996L828.1999999999992,956.1999999999996L825.9999999999992,958.3999999999996L824.9999999999992,960.6999999999996L823.2999999999992,966.4999999999995L818.4999999999992,974.8999999999995L815.5999999999992,987.9999999999995L813.4999999999992,993.8999999999995L803.1999999999992,1008.6999999999995L801.8999999999993,1011.3999999999995L787.9999999999993,1023.1999999999995L784.6999999999994,1026.9999999999995L784.2999999999994,1029.6999999999996L784.8999999999994,1035.8999999999996L784.6999999999994,1038.6999999999996L783.4999999999993,1041.8999999999996L781.2999999999993,1045.3999999999996L776.5999999999992,1051.4999999999995L771.8999999999992,1055.9999999999995L755.7999999999992,1066.6999999999996L744.9999999999992,1078.5999999999997L742.2999999999992,1079.9999999999998L740.1999999999991,1082.6999999999998L734.9999999999991,1096.1999999999998L732.3999999999991,1101.1999999999998L724.3999999999991,1111.1999999999998L721.0999999999991,1117.1999999999998L719.1999999999991,1129.4999999999998L714.3999999999992,1146.2999999999997L704.8999999999992,1162.9999999999998L703.4999999999992,1168.6999999999998L701.7999999999992,1184.7999999999997L702.0999999999991,1199.4999999999998Z" class="sm_state sm_state_TWN1177" opacity="1" stroke-opacity="1" stroke-width="2.203790625000001" stroke-linejoin="round" transform="matrix(0.2297,0,0,0.2297,0,0)" style="-webkit-tap-highlight-color: rgba(0, 0, 0, 0); opacity: 1; cursor: pointer; stroke-opacity: 1; stroke-linejoin: round; fill-opacity: 1;" fill-opacity="1"></path><path fill="#f9604a" stroke="#ffffff" d="M469.2,123.9L469,126.2L467.1,128.3L463,130.3L465.5,124.70000000000002L468,125.20000000000002L468.1,124.30000000000001L469.20000000000005,123.9ZM457.4,123.10000000000001L455.4,125.2L453,121.8L456.6,120.5L459.3,122L457.40000000000003,123.1ZM454.2,68.20000000000002L455.2,68.70000000000002L459.59999999999997,66.10000000000002L462.4,66.10000000000002L462.4,67.90000000000002L459.59999999999997,71.10000000000002L454.09999999999997,74.00000000000003L452.4,74.30000000000003L449.9,72.60000000000002L449.09999999999997,70.20000000000002L449.59999999999997,67.40000000000002L450.7,65.40000000000002L451.7,65.20000000000002L452,67.40000000000002L454.2,68.20000000000002ZM475.5,50.40000000000002L474.9,52.60000000000002L475.5,53.800000000000026L474.1,53.60000000000002L472.6,51.40000000000002L471.5,50.70000000000002L469.2,52.000000000000014L468.2,51.600000000000016L466.9,51.90000000000001L465.4,53.600000000000016L464.2,58.600000000000016L463.09999999999997,57.90000000000001L462.59999999999997,56.40000000000001L463.09999999999997,52.100000000000016L463.59999999999997,50.500000000000014L464.7,49.80000000000001L467.4,48.90000000000001L468.09999999999997,48.000000000000014L470.29999999999995,46.70000000000002L472.79999999999995,47.100000000000016L474.09999999999997,49.000000000000014L475.49999999999994,50.40000000000001ZM605.3,4.8000000000000185L604.0999999999999,5.200000000000019L602.9999999999999,4.8000000000000185L601.5999999999999,6.100000000000018L600.4999999999999,8.200000000000019L600.1999999999999,7.700000000000019L598.9999999999999,7.500000000000019L597.1999999999999,6.500000000000019L598.3,4.8000000000000185L597.8,3.4000000000000186L598.6999999999999,2.8000000000000185L600.9,1.0000000000000184L603.5,2.5000000000000187L604.1,3.8000000000000185L605.3000000000001,4.8000000000000185Z" class="sm_state sm_state_TWN5128" opacity="1" stroke-opacity="1" stroke-width="2.203790625000001" stroke-linejoin="round" transform="matrix(0.2297,0,0,0.2297,0,0)" style="-webkit-tap-highlight-color: rgba(0, 0, 0, 0); opacity: 1; cursor: pointer; stroke-opacity: 1; stroke-linejoin: round; display: none; fill-opacity: 1;" fill-opacity="1"></path><path fill="#f9604a" stroke="#ffffff" d="M569.4,1166L571.4,1168.9L571.1,1169.9L568.4,1171.7L563.4,1176L562.5,1172.7L563.9,1170L566.6999999999999,1166.4L568.6999999999999,1166.4L569.4,1166ZM696.1,1022.7L699.6,1029.3L700.3000000000001,1034.2L705.7,1035.5L711.2,1039.1L708.4000000000001,1052.8999999999999L708.3000000000001,1058.1L706.3000000000001,1063.1L696.5000000000001,1067.1999999999998L691.7000000000002,1069.8999999999999L684.1000000000001,1071.4999999999998L678.7000000000002,1075.9999999999998L676.3000000000002,1082.5999999999997L672.6000000000001,1089.1999999999996L669.6000000000001,1096.6999999999996L668.8000000000002,1111.3999999999996L670.0000000000002,1117.8999999999996L672.0000000000002,1123.9999999999995L673.1000000000003,1131.0999999999995L673.1000000000003,1136.4999999999995L675.7000000000003,1141.4999999999995L680.3000000000003,1147.0999999999995L677.8000000000003,1150.8999999999994L672.5000000000003,1154.0999999999995L670.4000000000003,1157.9999999999995L669.9000000000003,1162.4999999999995L672.6000000000004,1166.3999999999996L676.0000000000003,1168.0999999999997L679.1000000000004,1172.4999999999998L679.0000000000003,1178.1999999999998L679.6000000000004,1184.2999999999997L682.8000000000004,1190.1999999999998L687.4000000000004,1195.1L697.6000000000005,1199.8L702.1000000000005,1199.5L703.0000000000005,1251.1L701.4000000000004,1258.3999999999999L698.9000000000004,1264.3999999999999L695.5000000000005,1266.8999999999999L691.5000000000005,1270.6L691.6000000000005,1278.8999999999999L693.1000000000005,1288.1L692.7000000000005,1294L688.2000000000005,1287.2L681.4000000000005,1282L673.6000000000006,1278.5L665.6000000000006,1276.6L665.3000000000006,1283.1999999999998L663.0000000000007,1285.4999999999998L659.6000000000007,1284.6999999999998L655.9000000000007,1281.6L655.7000000000006,1279.1999999999998L657.0000000000006,1272.1999999999998L651.5000000000006,1262.9999999999998L651.0000000000006,1260.5999999999997L651.1000000000006,1258.4999999999998L651.5000000000006,1255.2999999999997L651.5000000000006,1244.4999999999998L652.0000000000006,1241.3999999999999L654.5000000000006,1237.8L655.0000000000006,1234.8L635.1000000000006,1183.2L633.5000000000006,1180.3L628.0000000000006,1173.5L623.6000000000006,1163.6L621.6000000000006,1160.8L613.4000000000005,1154.3L608.0000000000006,1151.3L607.1000000000006,1147.6L606.4000000000005,1146.3L602.0000000000006,1143.3999999999999L592.0000000000006,1138.6L587.5000000000006,1135.5L582.7000000000006,1131.3L580.1000000000006,1129.7L588.2000000000006,1109.2L587.8000000000006,1101L585.1000000000006,1093.5L585.2000000000006,1086.4L590.9000000000007,1065.2L591.0000000000007,1055.7L590.5000000000007,1048.7L593.1000000000007,1040.8L594.4000000000007,1033.6L596.1000000000007,1028.6999999999998L613.9000000000007,1029.7999999999997L621.9000000000007,1026.9999999999998L628.3000000000006,1019.8999999999997L637.7000000000006,1015.3999999999997L650.8000000000006,1021.9999999999998L657.4000000000007,1016.0999999999998L664.6000000000007,1014.2999999999998L672.2000000000007,1023.1999999999998L678.1000000000007,1028.6999999999998L686.6000000000007,1021.9999999999998L690.9000000000007,1021.7999999999997L696.1000000000007,1022.6999999999997Z" class="sm_state sm_state_TWN1158" opacity="1" stroke-opacity="1" stroke-width="2.203790625000001" stroke-linejoin="round" transform="matrix(0.2297,0,0,0.2297,0,0)" style="-webkit-tap-highlight-color: rgba(0, 0, 0, 0); opacity: 1; cursor: pointer; stroke-opacity: 1; stroke-linejoin: round; fill-opacity: 1;" fill-opacity="1"></path><path fill="#f9604a" stroke="#ffffff" d="M739.8,857.3L741.6999999999999,863.0999999999999L738.6999999999999,868.0999999999999L733.0999999999999,870.4999999999999L731.6999999999999,873.6999999999999L732.6999999999999,877.6999999999999L738.3,881.3L744.5999999999999,886.5L747.3999999999999,894.1L747.6999999999998,896.6L732.0999999999998,900.4L725.6999999999998,904.5L721.6999999999998,908.4L713.8999999999999,913.5L712.9999999999999,919.2L715.2999999999998,925.2L712.5999999999998,930.1L705.1999999999998,934.1L704.3999999999999,941L706.4999999999999,950.9L703.4999999999999,964.1L703.3999999999999,975.3000000000001L699.0999999999999,981.2L690.5999999999999,988.4000000000001L688.3,998.2L689.5999999999999,1006.3000000000001L692.5999999999999,1010.9000000000001L698.8,1017.3000000000001L700,1022.2L696.1,1022.7L690.9,1021.8000000000001L686.6,1022.0000000000001L678.1,1028.7L672.2,1023.2L664.6,1014.3000000000001L657.4,1016.1L650.8,1022L637.6999999999999,1015.4L628.3,1019.9L621.9,1027L613.9,1029.8L596.1,1028.7L594.4,1033.6000000000001L593.1,1040.8000000000002L590.5,1048.7000000000003L591,1055.7000000000003L590.9,1065.2000000000003L585.1999999999999,1086.4000000000003L585.0999999999999,1093.5000000000002L587.8,1101.0000000000002L588.1999999999999,1109.2000000000003L580.0999999999999,1129.7000000000003L577.4999999999999,1128.6000000000004L575.8999999999999,1128.7000000000003L574.0999999999999,1129.4000000000003L571.8999999999999,1129.4000000000003L558.8999999999999,1119.2000000000003L546.7999999999998,1102.1000000000004L559.4999999999999,1117.5000000000005L557.9999999999999,1110.1000000000004L554.1999999999999,1102.9000000000003L548.9,1096.9000000000003L539.9,1088.5000000000002L536.4,1084.3000000000002L534.8,1079.5000000000002L537,1074.9000000000003L538.1,1070.8000000000004L536.6,1065.0000000000005L533.9,1059.4000000000005L529,1051.7000000000005L524.4,1041.5000000000005L523.4,1037.0000000000005L523.5,1034.0000000000005L525,1030.4000000000005L525.3,1028.0000000000005L524.8,1026.8000000000004L522.0999999999999,1024.5000000000005L521.5999999999999,1022.2000000000005L518.6999999999999,1017.3000000000005L517.9999999999999,1015.3000000000005L515.8999999999999,1001.7000000000005L521.9999999999999,998.0000000000005L522.1999999999999,998.5000000000005L526.0999999999999,1007.1000000000005L530.8999999999999,1009.6000000000005L546.5999999999999,1011.8000000000005L554.8,1010.9000000000005L563.1999999999999,1011.9000000000005L567.4,1010.4000000000005L570.9,1007.8000000000005L577.4,1005.2000000000005L583.6999999999999,1000.8000000000005L586.0999999999999,995.3000000000005L589.0999999999999,990.1000000000005L594.3999999999999,983.0000000000005L600.4999999999999,976.6000000000005L606.9999999999999,971.2000000000005L614.3999999999999,964.0000000000005L620.8999999999999,955.6000000000005L630.8999999999999,938.6000000000005L641.2999999999998,923.5000000000005L643.5999999999998,916.9000000000004L642.5999999999998,910.2000000000004L641.1999999999998,905.7000000000004L641.2999999999998,900.7000000000004L644.8999999999999,897.2000000000004L651.7999999999998,897.9000000000004L657.5999999999998,897.3000000000004L669.8999999999997,890.0000000000005L674.3999999999997,884.6000000000005L682.2999999999997,878.5000000000005L689.9999999999998,874.2000000000005L694.1999999999998,869.2000000000005L697.7999999999998,862.4000000000005L706.2999999999998,855.6000000000006L724.7999999999998,846.2000000000006L729.0999999999998,847.2000000000006L734.8999999999997,849.4000000000007L739.0999999999998,855.3000000000006L739.7999999999998,857.3000000000006Z" class="sm_state sm_state_TWN1156" opacity="1" stroke-opacity="1" stroke-width="2.203790625000001" stroke-linejoin="round" transform="matrix(0.2297,0,0,0.2297,0,0)" style="-webkit-tap-highlight-color: rgba(0, 0, 0, 0); opacity: 1; cursor: pointer; stroke-opacity: 1; stroke-linejoin: round; fill-opacity: 1;" fill-opacity="1"></path><path fill="#f9604a" stroke="#ffffff" d="M9.2,576.4L3.999999999999999,577.9L0.9999999999999991,576.6999999999999L5.999999999999999,566.8L7.299999999999999,565.4L9.399999999999999,564.9L11.499999999999998,564.8L13.499999999999998,566.1999999999999L15.099999999999998,567.9999999999999L15.099999999999998,571.0999999999999L13.699999999999998,573.1999999999999L12.099999999999998,573.3L10.999999999999998,574.5L10.399999999999999,575.7L9.2,576.4000000000001ZM64.2,549.6L68.9,562.2L67.9,571L64,575.6L57.2,571.3000000000001L52.2,569.7L44.1,570.5L37,575L33.1,581.1L29.700000000000003,582.8000000000001L25.800000000000004,580.9000000000001L23.100000000000005,580.8000000000001L20.700000000000006,579.7L19.500000000000007,577.6L20.000000000000007,576.9L22.10000000000001,574.1L22.800000000000008,572.9L23.000000000000007,570.8L22.900000000000006,568.3L22.200000000000006,564L20.400000000000006,559.8L20.200000000000006,557.6999999999999L21.700000000000006,556.8L29.300000000000004,553.0999999999999L39.300000000000004,559.6999999999999L46.300000000000004,558.8L47.400000000000006,550.0999999999999L49.7,544.5999999999999L57.2,543.0999999999999L64.2,549.5999999999999ZM333.5,411.90000000000003L330.6,413.40000000000003L329.3,412.20000000000005L330,409.00000000000006L332.4,407.6000000000001L334.09999999999997,407.9000000000001L334.29999999999995,409.80000000000007L333.49999999999994,411.9000000000001Z" class="sm_state sm_state_TWN3415" opacity="1" stroke-opacity="1" stroke-width="2.203790625000001" stroke-linejoin="round" transform="matrix(0.2297,0,0,0.2297,0,0)" style="-webkit-tap-highlight-color: rgba(0, 0, 0, 0); opacity: 1; cursor: pointer; stroke-opacity: 1; stroke-linejoin: round; display: none; fill-opacity: 1;" fill-opacity="1"></path><path fill="#f9604a" stroke="#ffffff" d="M320.7,926.5L318.9,927.4L317.59999999999997,925.9L316.09999999999997,921.1999999999999L317.09999999999997,919.9999999999999L320.9,918.6999999999999L323.59999999999997,919.4L323.7,921.5L323.5,923.1L322.3,924.3000000000001L320.7,926.5000000000001ZM319.5,914.5L317.8,917.6L315.6,917L313.6,914.5L313.3,912L314.5,910.9L317.7,911.4L319.5,914.5ZM368.3,911.3L367.90000000000003,911.4L366.70000000000005,909.9L367.00000000000006,909.3L369.50000000000006,909.0999999999999L370.30000000000007,911.0999999999999L368.30000000000007,911.3ZM382.3,906.6999999999999L382.6,906.9L384.90000000000003,906.9L384.90000000000003,908.1999999999999L383.8,909.6999999999999L383.1,911.4999999999999L382,908.6999999999999L382.3,906.6999999999999ZM348.8,877.0999999999999L347.1,877.1999999999999L344.1,878.9999999999999L343.70000000000005,878.5999999999999L344.1,877.3L345.20000000000005,875.8L345.90000000000003,875.1999999999999L347.50000000000006,874.9L349.00000000000006,875.8L348.80000000000007,877.0999999999999ZM340.40000000000003,870.3999999999999L340.50000000000006,872.6999999999998L341.00000000000006,874.2999999999998L342.40000000000003,875.4999999999999L341.8,877.0999999999999L340.6,878.3L341.20000000000005,880.1999999999999L339.70000000000005,880.8L336.6,880.5L335,879.8L336.4,876.6999999999999L336.2,872.4999999999999L335.3,873.0999999999999L333.3,873.6999999999999L332.7,871.4L334.8,866.3L336.40000000000003,866L339.1,869.6L340.40000000000003,870.4ZM290.90000000000003,864.6999999999998L293.3,865.2999999999998L293.3,866.8999999999999L292.7,867.7999999999998L290.59999999999997,868.3999999999999L289.49999999999994,867.2999999999998L290.8999999999999,864.6999999999998ZM349.40000000000003,839.8999999999999L346.20000000000005,841.9999999999999L344.1,842.5999999999999L341.90000000000003,843.6999999999999L340.6,843.1999999999999L340.3,841.4L341,840.8L342.8,841.3L346.8,839.3L349.40000000000003,839.9ZM368.90000000000003,811.8999999999999L368.3,813.1999999999998L372.3,811.8999999999999L375.40000000000003,812.2999999999998L377.70000000000005,812.0999999999998L379.30000000000007,809.3999999999997L384.00000000000006,818.0999999999998L385.20000000000005,822.0999999999998L384.70000000000005,825.0999999999998L382.70000000000005,823.0999999999998L380.20000000000005,821.3999999999997L377.40000000000003,820.8999999999997L373.40000000000003,823.0999999999998L370.6,823.3999999999997L369.20000000000005,824.1999999999997L368.50000000000006,825.6999999999997L367.40000000000003,829.7999999999997L366.70000000000005,830.9999999999998L362.00000000000006,833.6999999999998L357.20000000000005,834.3999999999999L352.40000000000003,832.4999999999999L347.50000000000006,827.5999999999999L348.80000000000007,825.0999999999999L351.50000000000006,828.3L355.50000000000006,829.1999999999999L359.80000000000007,827.9999999999999L363.30000000000007,825.0999999999999L360.9000000000001,824.1999999999999L358.9000000000001,822.9999999999999L357.4000000000001,821.3999999999999L356.0000000000001,819.1999999999998L355.2000000000001,820.5999999999998L354.2000000000001,821.1999999999998L353.9000000000001,817.1999999999998L354.2000000000001,813.1999999999998L356.0000000000001,813.1999999999998L358.10000000000014,813.6999999999998L365.5000000000001,809.0999999999998L370.10000000000014,807.4999999999998L368.90000000000015,811.8999999999997ZM329.00000000000006,821.1999999999998L325.20000000000005,821.1999999999998L325.90000000000003,819.0999999999998L327.1,817.7999999999998L329,817.2999999999998L331.5,817.0999999999998L333.7,816.1999999999998L334.3,814.1999999999998L334.40000000000003,809.3999999999999L337.6,798.9999999999999L340.70000000000005,795.9999999999999L344.90000000000003,799.5999999999999L342.40000000000003,801.0999999999999L340.70000000000005,804.6999999999999L337.90000000000003,813.1999999999999L337.8,815.4L338.5,817.4L338.2,818.6999999999999L335.2,819.1999999999999L333,819.3L331.5,819.5999999999999L330.2,820.1999999999999L329,821.1999999999999ZM362.80000000000007,803.2999999999998L360.6000000000001,803.9999999999999L359.50000000000006,802.4999999999999L358.6000000000001,798.9999999999999L356.6000000000001,796.0999999999999L352.30000000000007,791.8L357.80000000000007,787.6999999999999L361.1000000000001,789.4L364.30000000000007,792.1999999999999L365.70000000000005,795.0999999999999L363.20000000000005,797.4999999999999L364.20000000000005,800.9999999999999L362.80000000000007,803.2999999999998ZM365.4000000000001,772.8999999999999L365.1000000000001,773.7999999999998L363.80000000000007,770.7999999999998L363.6000000000001,769.3999999999999L365.4000000000001,767.8999999999999L367.0000000000001,764.8999999999999L367.5000000000001,765.9999999999999L370.0000000000001,767.3999999999999L369.60000000000014,769.1999999999998L367.40000000000015,770.4999999999998L365.40000000000015,772.8999999999997Z" class="sm_state sm_state_TWN3414" opacity="1" stroke-opacity="1" stroke-width="2.203790625000001" stroke-linejoin="round" transform="matrix(0.2297,0,0,0.2297,0,0)" style="-webkit-tap-highlight-color: rgba(0, 0, 0, 0); opacity: 1; cursor: pointer; stroke-opacity: 1; stroke-linejoin: round; display: none; fill-opacity: 1;" fill-opacity="1"></path><path fill="#f9604a" stroke="#ffffff" d="M982.4,448.9L984.5,449.4L986.1,451.59999999999997L985.4,453.9L981.6,453.79999999999995L980.2,452.99999999999994L978.5,450.29999999999995L979.4,450.59999999999997L982.4,448.9ZM935.4,601.5L934.3,601.5L923.1999999999999,599.8L904.6999999999999,588.6999999999999L900.9,589.5999999999999L898.5,595.5999999999999L893.6,600.0999999999999L887.1,600.0999999999999L878.8000000000001,596.8999999999999L863.8000000000001,593.0999999999999L857.3000000000001,589.9999999999999L854.8000000000001,587.8999999999999L848.9000000000001,583.1999999999998L844.0000000000001,583.1999999999998L839.3000000000001,585.4999999999998L835.3000000000001,586.0999999999998L831.6,583.5999999999998L827.2,580.9999999999998L822.3000000000001,579.9999999999998L820.9000000000001,576.1999999999998L821.5000000000001,570.6999999999998L817.9000000000001,569.6999999999998L822.2,559.1999999999998L836.2,544.9999999999998L840,539.1999999999998L839.4,534.7999999999998L840.8,530.0999999999998L843.0999999999999,523.5999999999998L843.5999999999999,522.0999999999998L847.4999999999999,520.4999999999998L850.7999999999998,521.0999999999998L854.1999999999998,519.7999999999998L856.3999999999999,515.9999999999999L853.2999999999998,503.5999999999999L858.6999999999998,499.69999999999993L861.7999999999998,498.79999999999995L867.4999999999999,497.19999999999993L872.3999999999999,495.3999999999999L876.1999999999998,492.0999999999999L881.1999999999998,488.5999999999999L887.7999999999998,485.3999999999999L891.6999999999998,482.5999999999999L891.2999999999998,480.5999999999999L890.2999999999998,477.3999999999999L890.0999999999998,473.19999999999993L892.0999999999998,468.29999999999995L896.7999999999998,464.29999999999995L900.5999999999998,461.99999999999994L913.5999999999998,456.69999999999993L927.0999999999998,448.5999999999999L933.2999999999998,446.69999999999993L938.2999999999998,443.0999999999999L941.3999999999999,438.0999999999999L944.6999999999998,433.9999999999999L948.3999999999999,431.9999999999999L951.8999999999999,430.7999999999999L956.4999999999999,427.8999999999999L958.0999999999999,424.0999999999999L955.5999999999999,420.4999999999999L956.9999999999999,417.5999999999999L968.1999999999999,415.2999999999999L971.9,412.7999999999999L980.3,408.3999999999999L986.1999999999999,407.0999999999999L989.4999999999999,408.9999999999999L990.2999999999998,410.0999999999999L978.2999999999998,416.0999999999999L972.7999999999998,420.7999999999999L954.0999999999998,443.5999999999999L951.1999999999998,448.3999999999999L948.8999999999999,455.19999999999993L947.2999999999998,462.8999999999999L946.7999999999998,470.49999999999994L947.0999999999998,477.8999999999999L950.3999999999997,493.3999999999999L950.1999999999997,497.3999999999999L948.6999999999997,501.2999999999999L948.8999999999997,509.3999999999999L952.3999999999997,515.6999999999999L958.8999999999997,519.6999999999999L966.4999999999998,521.0999999999999L966.4999999999998,522.8999999999999L963.2999999999997,522.5999999999999L960.1999999999997,522.8999999999999L957.5999999999997,523.6999999999998L955.6999999999997,525.0999999999998L958.3999999999997,530.0999999999998L959.6999999999997,536.5999999999998L958.8999999999997,542.1999999999998L952.8999999999997,545.5999999999998L952.4999999999998,548.0999999999998L953.1999999999998,551.0999999999998L954.8999999999999,553.7999999999998L955.4999999999999,556.5999999999998L952.9999999999999,558.9999999999998L946.7999999999998,562.5999999999998L939.7999999999998,570.5999999999998L939.4999999999999,573.7999999999998L939.9999999999999,580.7999999999998L938.7999999999998,583.3999999999999L937.4999999999999,585.6999999999998L936.6999999999999,588.8999999999999L936.1999999999999,595.2999999999998L935.5999999999999,596.8999999999999L934.5999999999999,598.1999999999998L934.0999999999999,599.5999999999998L935.3999999999999,601.4999999999998Z" class="sm_state sm_state_TWN1163" opacity="1" stroke-opacity="1" stroke-width="2.203790625000001" stroke-linejoin="round" transform="matrix(0.2297,0,0,0.2297,0,0)" style="-webkit-tap-highlight-color: rgba(0, 0, 0, 0); opacity: 1; cursor: pointer; stroke-opacity: 1; stroke-linejoin: round; fill-opacity: 1;" fill-opacity="1"></path><path fill="#f9604a" stroke="#ffffff" d="M843.1,523.6L840.8000000000001,530.1L839.4000000000001,534.8000000000001L840.0000000000001,539.2L836.2000000000002,545L822.2000000000002,559.2L817.9000000000002,569.7L815.1000000000003,568.9000000000001L804.5000000000002,569.9000000000001L803.7000000000003,570.5000000000001L803.1000000000003,565.6000000000001L798.5000000000002,557.8000000000002L795.2000000000003,554.5000000000002L793.9000000000003,550.1000000000003L788.9000000000003,546.1000000000003L776.4000000000003,549.3000000000003L771.6000000000004,548.8000000000003L764.8000000000004,549.3000000000003L757.1000000000004,551.4000000000003L753.0000000000003,550.4000000000003L753.9000000000003,545.3000000000003L755.2000000000003,540.7000000000003L754.2000000000003,536.7000000000003L753.2000000000003,533.8000000000003L754.2000000000003,530.7000000000003L755.0000000000002,527.2000000000003L755.3000000000002,523.3000000000003L754.6000000000001,518.1000000000003L750.7000000000002,514.7000000000003L738.6000000000001,509.0000000000003L732.6000000000001,504.5000000000003L728.7000000000002,500.1000000000003L724.3000000000002,489.0000000000003L726.7000000000002,485.90000000000026L729.0000000000001,480.30000000000024L732.4000000000001,476.0000000000002L738.3000000000001,473.60000000000025L743.4000000000001,472.7000000000003L745.8000000000001,471.3000000000003L746.8000000000001,467.7000000000003L744.9000000000001,464.0000000000003L741.1000000000001,460.1000000000003L735.7000000000002,457.3000000000003L720.6000000000001,452.5000000000003L712.3000000000002,448.90000000000026L713.8000000000002,446.60000000000025L714.4000000000002,442.7000000000003L715.3000000000002,439.8000000000003L717.3000000000002,436.9000000000003L720.0000000000002,434.8000000000003L722.5000000000002,433.9000000000003L722.3000000000002,432.70000000000033L723.0000000000002,429.80000000000035L725.2000000000003,423.70000000000033L727.3000000000003,420.4000000000003L730.4000000000003,421.50000000000034L744.1000000000004,420.50000000000034L748.7000000000004,423.60000000000036L752.7000000000004,432.30000000000035L757.7000000000004,434.30000000000035L762.0000000000003,435.50000000000034L766.1000000000004,437.50000000000034L772.9000000000003,439.70000000000033L776.5000000000003,443.9000000000003L775.4000000000003,449.70000000000033L778.9000000000003,453.4000000000003L785.4000000000003,455.50000000000034L789.6000000000004,458.60000000000036L792.7000000000004,461.7000000000004L796.5000000000003,462.4000000000004L800.4000000000003,462.10000000000036L803.8000000000003,465.60000000000036L806.4000000000003,470.10000000000036L810.7000000000003,472.30000000000035L814.1000000000003,474.9000000000004L814.5000000000002,479.9000000000004L816.1000000000003,487.2000000000004L814.2000000000003,495.0000000000004L809.6000000000003,501.5000000000004L810.1000000000003,505.8000000000004L815.3000000000003,509.7000000000004L821.5000000000003,513.5000000000003L827.0000000000003,514.4000000000003L831.0000000000003,517.3000000000003L838.3000000000003,521.4000000000003L843.1000000000003,523.6000000000004Z" class="sm_state sm_state_TWN1162" opacity="1" stroke-opacity="1" stroke-width="2.203790625000001" stroke-linejoin="round" transform="matrix(0.2297,0,0,0.2297,0,0)" style="-webkit-tap-highlight-color: rgba(0, 0, 0, 0); opacity: 1; cursor: pointer; stroke-opacity: 1; stroke-linejoin: round; fill-opacity: 1;" fill-opacity="1"></path><path fill="#f9604a" stroke="#ffffff" d="M724.3,489L724.0999999999999,489.2L719.4999999999999,490.3L715.0999999999999,488.6L712.3999999999999,484.8L708.0999999999999,482.2L701.1999999999999,479.5L702.4,475.4L707.9,464L710.1,461L710.8000000000001,459.5L710.8000000000001,457.8L710.1,455.90000000000003L709,453.70000000000005L710.5,450.70000000000005L712.3,448.90000000000003L720.5999999999999,452.50000000000006L735.6999999999999,457.30000000000007L741.0999999999999,460.1000000000001L744.8999999999999,464.00000000000006L746.7999999999998,467.70000000000005L745.7999999999998,471.30000000000007L743.3999999999999,472.70000000000005L738.2999999999998,473.6L732.3999999999999,476L728.9999999999999,480.3L726.6999999999999,485.90000000000003L724.3,489.00000000000006Z" class="sm_state sm_state_TWN1161" opacity="1" stroke-opacity="1" stroke-width="2.203790625000001" stroke-linejoin="round" transform="matrix(0.2297,0,0,0.2297,0,0)" style="-webkit-tap-highlight-color: rgba(0, 0, 0, 0); opacity: 1; cursor: pointer; stroke-opacity: 1; stroke-linejoin: round; fill-opacity: 1;" fill-opacity="1"></path><path fill="#f9604a" stroke="#ffffff" d="M483.8,968.3L483.2,969.5L480.9,967.5L479.2,963.3L479.5,962L480.2,962L481.09999999999997,963.2L481.79999999999995,965.1L483.9,967.3000000000001L483.79999999999995,968.3000000000001ZM484.3,940.6999999999999L481.40000000000003,947.4999999999999L485.3,934.1999999999999L485.90000000000003,934.3L484.3,940.6999999999999ZM487.8,927.9L491.3,918L491.8,917.9L492,919.8L487.8,927.9ZM494.1,905.4L493.70000000000005,907.8L494.30000000000007,897.1999999999999L494.80000000000007,897.4L494.1000000000001,905.4ZM643.6,916.9L641.3000000000001,923.5L630.9000000000001,938.6L620.9000000000001,955.6L614.4000000000001,964L607.0000000000001,971.2L600.5000000000001,976.6L594.4000000000001,983L589.1000000000001,990.1L586.1000000000001,995.3000000000001L583.7000000000002,1000.8000000000001L577.4000000000002,1005.2L570.9000000000002,1007.8000000000001L567.4000000000002,1010.4000000000001L563.2000000000002,1011.9000000000001L554.8000000000002,1010.9000000000001L546.6000000000001,1011.8000000000001L530.9000000000001,1009.6L526.1000000000001,1007.1L522.2000000000002,998.5L522.0000000000001,998L515.9000000000001,1001.7L514.9000000000001,995.4000000000001L513.1000000000001,991.8000000000001L509.20000000000016,987.9000000000001L513.9000000000002,984.5000000000001L516.6000000000003,978.4000000000001L515.5000000000002,973.2L509.2000000000002,972.3000000000001L508.0000000000002,974.1L506.9000000000002,977.5L505.1000000000002,980.2L501.8000000000002,980.1L500.50000000000017,977.8000000000001L501.00000000000017,970.8000000000001L500.20000000000016,968.4000000000001L496.10000000000014,966.6000000000001L493.8000000000001,968.7000000000002L492.0000000000001,971.6000000000001L489.2000000000001,972.3000000000002L486.3000000000001,969.8000000000002L485.60000000000014,966.3000000000002L486.3000000000001,962.9000000000002L487.40000000000015,960.6000000000003L490.40000000000015,959.0000000000002L494.10000000000014,958.5000000000002L497.20000000000016,957.5000000000002L498.20000000000016,954.5000000000002L496.8000000000002,953.0000000000002L487.4000000000002,950.6000000000003L487.4000000000002,948.7000000000003L495.3000000000002,948.6000000000003L494.50000000000017,946.0000000000002L490.20000000000016,942.3000000000002L487.40000000000015,939.1000000000001L488.10000000000014,935.1000000000001L490.60000000000014,933.6000000000001L493.3000000000001,932.7000000000002L494.7000000000001,930.2000000000002L493.9000000000001,926.3000000000002L492.5000000000001,923.1000000000001L493.4000000000001,920.1000000000001L494.80000000000007,916.4000000000001L497.1000000000001,913.8000000000001L496.6000000000001,911.5000000000001L497.1000000000001,909.2000000000002L500.4000000000001,900.2000000000002L502.0000000000001,898.5000000000001L504.60000000000014,897.9000000000001L500.90000000000015,895.4000000000001L502.50000000000017,891.3000000000001L507.70000000000016,893.3000000000001L516.6000000000001,894.6L523.8000000000002,896.4L530.0000000000002,893.6L532.5000000000002,888.7L538.3000000000002,885.1L544.9000000000002,880L549.6000000000003,875.2L555.7000000000003,870.6L563.5000000000002,867.1L578.7000000000003,864.3000000000001L587.2000000000003,863.8000000000001L594.4000000000003,866.2L598.4000000000003,868.6L600.5000000000003,872.8000000000001L602.2000000000004,877.9000000000001L612.1000000000004,888.0000000000001L613.1000000000004,895.5000000000001L611.3000000000004,909.7000000000002L612.9000000000004,914.3000000000002L617.4000000000004,917.8000000000002L621.2000000000004,917.8000000000002L626.5000000000003,915.4000000000002L631.5000000000003,914.8000000000002L635.2000000000004,915.9000000000002L643.6000000000004,916.9000000000002Z" class="sm_state sm_state_TWN1160" opacity="1" stroke-opacity="1" stroke-width="2.203790625000001" stroke-linejoin="round" transform="matrix(0.2297,0,0,0.2297,0,0)" style="-webkit-tap-highlight-color: rgba(0, 0, 0, 0); opacity: 1; cursor: pointer; stroke-opacity: 1; stroke-linejoin: round; fill-opacity: 1;" fill-opacity="1"></path><path fill="#f9604a" stroke="#ffffff" d="M915.9,357.2L911.5,360.09999999999997L904.3,363.2L901.0999999999999,365.4L901.6999999999999,368.29999999999995L904.5999999999999,371.99999999999994L906.3,375.49999999999994L909.0999999999999,378.99999999999994L912.8,382.3999999999999L915.8,384.5999999999999L926.4,388.9999999999999L931.5,389.5999999999999L935.5,388.0999999999999L938,386.2999999999999L938.4,383.7999999999999L934.6999999999999,379.8999999999999L934.4999999999999,376.8999999999999L934.7999999999998,364.99999999999994L969.3999999999999,373.3999999999999L972.5999999999999,375.3999999999999L970.9999999999999,379.0999999999999L970.5999999999999,381.9999999999999L971.3,387.1999999999999L973.6999999999999,395.89999999999986L976.3,399.9999999999999L978.5,400.89999999999986L985.5,399.89999999999986L989.1,400.29999999999984L993.3000000000001,401.39999999999986L997.0000000000001,403.29999999999984L999.0000000000001,405.79999999999984L990.3000000000001,410.09999999999985L989.5000000000001,408.99999999999983L986.2000000000002,407.09999999999985L980.3000000000002,408.39999999999986L971.9000000000002,412.79999999999984L968.2000000000002,415.29999999999984L957.0000000000001,417.59999999999985L955.6000000000001,420.49999999999983L958.1000000000001,424.09999999999985L956.5000000000001,427.89999999999986L951.9000000000001,430.79999999999984L948.4000000000001,431.99999999999983L944.7,433.99999999999983L941.4000000000001,438.09999999999985L938.3000000000001,443.09999999999985L933.3000000000001,446.6999999999999L927.1,448.59999999999985L913.6,456.6999999999999L900.6,461.9999999999999L896.8000000000001,464.2999999999999L892.1,468.2999999999999L890.1,473.1999999999999L890.3000000000001,477.39999999999986L891.3000000000001,480.59999999999985L891.7,482.59999999999985L887.8000000000001,485.39999999999986L881.2,488.59999999999985L876.2,492.09999999999985L872.4000000000001,495.39999999999986L867.5000000000001,497.1999999999999L861.8000000000001,498.7999999999999L859.3000000000001,493.3999999999999L850.4000000000001,484.8999999999999L849.0000000000001,479.2999999999999L848.2000000000002,474.0999999999999L851.3000000000002,470.3999999999999L852.8000000000002,465.0999999999999L844.3000000000002,452.7999999999999L839.3000000000002,450.7999999999999L831.9000000000002,451.1999999999999L826.8000000000002,448.2999999999999L828.1000000000001,441.5999999999999L827.1000000000001,436.4999999999999L821.7000000000002,431.39999999999986L820.7000000000002,426.29999999999984L821.7000000000002,420.49999999999983L821.5000000000001,414.29999999999984L825.2000000000002,410.29999999999984L838.3000000000002,406.39999999999986L841.6000000000001,402.9999999999999L842.6000000000001,398.7999999999999L842.1000000000001,394.6999999999999L837.0000000000001,387.1999999999999L832.8000000000001,384.9999999999999L828.7,383.9999999999999L825.5,381.1999999999999L820.8,378.09999999999985L814.5,375.09999999999985L810.3,370.49999999999983L821.5,368.3999999999998L826.3,366.5999999999998L832.4,361.3999999999998L834.3,360.49999999999983L836.5,360.09999999999985L839.6,360.09999999999985L843.1,361.1999999999999L845,363.89999999999986L846.2,366.59999999999985L847.7,368.1999999999999L851.2,366.7999999999999L847.6,361.0999999999999L841.8000000000001,355.19999999999993L838.7,353.29999999999995L839.6,350.59999999999997L841.4,349.09999999999997L843.3,348.2L844.0999999999999,347.2L846.1999999999999,342.09999999999997L849.4,336.2L856,330.3L865.6,325.40000000000003L876.6,322.90000000000003L887.4,324.1L891.9,327.5L901.9,341.7L905.5,349.09999999999997L906.7,348.59999999999997L909.4000000000001,347.9L912.4000000000001,347.5L914.6000000000001,348.1L914.5000000000001,349L913.4000000000001,350.3L912.4000000000001,352.1L912.5000000000001,354.3L913.6000000000001,355.5L915.9000000000001,357.2ZM897.4,413.2L905,403.59999999999997L907,399.29999999999995L903.2,396.09999999999997L898.6,393.49999999999994L898.5,388.3999999999999L900.1,381.7999999999999L898.5,377.3999999999999L894.6,373.8999999999999L892.1,363.8999999999999L888.9,357.0999999999999L888.5,353.5999999999999L889,349.9999999999999L886.9,347.7999999999999L883.1,346.5999999999999L879.1,348.5999999999999L876.2,351.0999999999999L865.3000000000001,357.4999999999999L861.7,361.4999999999999L859.6,366.0999999999999L857.8000000000001,368.4999999999999L856.2,371.4999999999999L860,375.6999999999999L865.7,381.1999999999999L866.9000000000001,387.4999999999999L865.4000000000001,394.89999999999986L869.3000000000001,401.59999999999985L875.1,406.1999999999999L878.9,410.4999999999999L882.6,413.7999999999999L887.4,414.7999999999999L893.1999999999999,414.8999999999999L897.4,413.19999999999993Z" class="sm_state sm_state_TWN1167" opacity="1" stroke-opacity="1" stroke-width="2.203790625000001" stroke-linejoin="round" transform="matrix(0.2297,0,0,0.2297,0,0)" style="-webkit-tap-highlight-color: rgba(0, 0, 0, 0); opacity: 1; cursor: pointer; stroke-opacity: 1; stroke-linejoin: round; fill-opacity: 1;" fill-opacity="1"></path><path fill="#f9604a" stroke="#ffffff" d="M897.4,413.2L893.1999999999999,414.9L887.4,414.79999999999995L882.6,413.79999999999995L878.9,410.49999999999994L875.1,406.19999999999993L869.3000000000001,401.5999999999999L865.4000000000001,394.8999999999999L866.9000000000001,387.49999999999994L865.7,381.19999999999993L860,375.69999999999993L856.2,371.49999999999994L857.8000000000001,368.49999999999994L859.6,366.09999999999997L861.7,361.49999999999994L865.3000000000001,357.49999999999994L876.2,351.09999999999997L879.1,348.59999999999997L883.1,346.59999999999997L886.9,347.79999999999995L889,349.99999999999994L888.5,353.59999999999997L888.9,357.09999999999997L892.1,363.9L894.6,373.9L898.5,377.4L900.1,381.79999999999995L898.5,388.4L898.6,393.5L903.2,396.1L907,399.3L905,403.6L897.4,413.20000000000005Z" class="sm_state sm_state_TWN1166" opacity="1" stroke-opacity="1" stroke-width="2.203790625000001" stroke-linejoin="round" transform="matrix(0.2297,0,0,0.2297,0,0)" style="-webkit-tap-highlight-color: rgba(0, 0, 0, 0); opacity: 1; cursor: pointer; stroke-opacity: 1; stroke-linejoin: round; fill-opacity: 1;" fill-opacity="1"></path><path fill="#f9604a" stroke="#ffffff" d="M724.3,489L728.6999999999999,500.1L732.5999999999999,504.5L738.5999999999999,509L750.6999999999999,514.7L754.5999999999999,518.1L755.3,523.3000000000001L755,527.2L754.2,530.7L753.2,533.8000000000001L754.2,536.7L755.2,540.7L753.9000000000001,545.3000000000001L753.0000000000001,550.4000000000001L757.1000000000001,551.4000000000001L764.8000000000002,549.3000000000001L771.6000000000001,548.8000000000001L776.4000000000001,549.3000000000001L788.9000000000001,546.1L793.9000000000001,550.1L795.2,554.5L798.5,557.8L803.1,565.5999999999999L803.7,570.4999999999999L800,573.0999999999999L798.2,578.6999999999999L793.3000000000001,580.6999999999999L788.0000000000001,580.5999999999999L783.8000000000001,583.5999999999999L779.2,587.9999999999999L773.3000000000001,591.1999999999999L761.7,600.4L754.9000000000001,603.3L746.0000000000001,608L740.6000000000001,605.9L735.6000000000001,600.3L729.6000000000001,597.9L719.7000000000002,597.1L714.2000000000002,600.4L713.3000000000002,607.8L708.1000000000001,610.5999999999999L696.0000000000001,611.3L684.4000000000001,604.5999999999999L677.8000000000001,603.3999999999999L670.5000000000001,599.7999999999998L655.4000000000001,588.6999999999998L649.1000000000001,583.1999999999998L644.4000000000001,578.1999999999998L635.2,563.8999999999999L642.4000000000001,555.7999999999998L644.3000000000001,551.7999999999998L645.2,545.1999999999998L647.4000000000001,539.5999999999998L653.3000000000001,529.1999999999998L654.9000000000001,522.8999999999999L656.4000000000001,520.1999999999998L663.2,518.1999999999998L665.1,516.0999999999998L666.2,513.4999999999998L667.6,510.9999999999998L671.8000000000001,506.69999999999976L676.4000000000001,503.2999999999998L682.0000000000001,501.7999999999998L689.1000000000001,503.0999999999998L688.2000000000002,497.6999999999998L690.9000000000002,493.99999999999983L694.6000000000003,490.1999999999998L696.5000000000002,484.49999999999983L697.3000000000002,482.59999999999985L700.9000000000002,480.79999999999984L701.2000000000002,479.49999999999983L708.1000000000001,482.1999999999998L712.4000000000001,484.79999999999984L715.1000000000001,488.59999999999985L719.5000000000001,490.29999999999984L724.1000000000001,489.1999999999998L724.3000000000002,488.99999999999983Z" class="sm_state sm_state_TWN1165" opacity="1" stroke-opacity="1" stroke-width="2.203790625000001" stroke-linejoin="round" transform="matrix(0.2297,0,0,0.2297,0,0)" style="-webkit-tap-highlight-color: rgba(0, 0, 0, 0); opacity: 1; cursor: pointer; stroke-opacity: 1; stroke-linejoin: round; fill-opacity: 1;" fill-opacity="1"></path><path fill="#f9604a" stroke="#ffffff" d="M934.8,365L934.5,376.9L934.7,379.9L938.4000000000001,383.79999999999995L938.0000000000001,386.29999999999995L935.5000000000001,388.09999999999997L931.5000000000001,389.59999999999997L926.4000000000001,388.99999999999994L915.8000000000001,384.59999999999997L912.8000000000001,382.4L909.1,379L906.3000000000001,375.5L904.6,372L901.7,368.3L901.1,365.40000000000003L904.3000000000001,363.20000000000005L911.5000000000001,360.1L915.9000000000001,357.20000000000005L917.3000000000001,358.1L919.7,360.8L923.6,362.2L934.8000000000001,365Z" class="sm_state sm_state_TWN1164" opacity="1" stroke-opacity="1" stroke-width="2.203790625000001" stroke-linejoin="round" transform="matrix(0.2297,0,0,0.2297,0,0)" style="-webkit-tap-highlight-color: rgba(0, 0, 0, 0); opacity: 1; cursor: pointer; stroke-opacity: 1; stroke-linejoin: round; fill-opacity: 1;" fill-opacity="1"></path><path fill="#f9604a" stroke="#ffffff" d="M647.2,689.6L647.3000000000001,693.2L643.0000000000001,694.8000000000001L641.8000000000001,697.7L642.3000000000001,701.7L640.3000000000001,706.3000000000001L638.7,711.7L638.6,717.4000000000001L637.4,724.0000000000001L636.5,737.4000000000001L638.6,743.7L642.2,747L646.1,748.4L651.7,751.3L650.7,754.8L646.9000000000001,756.3L644.4000000000001,758.5999999999999L642.0000000000001,760.1999999999999L641.0000000000001,760.9L629.0000000000001,758.5L623.2000000000002,758.6L611.0000000000001,752.6L591.3000000000001,750.3000000000001L579.7,745.9000000000001L573.1,744.1000000000001L565.5,743.7000000000002L543.5,746.3000000000002L535.9,741.9000000000002L536.6999999999999,740.5000000000002L538.3,733.4000000000002L539.5,730.4000000000002L546.6,723.6000000000003L548.6,720.8000000000003L551.3000000000001,713.0000000000003L555.5000000000001,705.3000000000003L561.2000000000002,689.2000000000003L563.9000000000002,684.5000000000002L566.9000000000002,681.5000000000002L569.4000000000002,679.8000000000002L571.6000000000003,678.7000000000002L573.2000000000003,677.3000000000002L573.8000000000003,674.3000000000002L575.0000000000003,671.5000000000002L580.1000000000004,667.5000000000002L581.3000000000004,664.5000000000002L581.9000000000004,654.4000000000002L582.8000000000004,651.6000000000003L585.5000000000005,649.0000000000002L596.8000000000004,635.8000000000002L602.6000000000004,637.7000000000002L606.6000000000004,641.2000000000002L609.3000000000004,647.5000000000001L610.3000000000004,655.1000000000001L614.8000000000004,660.5000000000001L626.7000000000004,664.0000000000001L631.0000000000003,667.6000000000001L634.2000000000004,672.6000000000001L636.2000000000004,676.6000000000001L636.3000000000004,680.6000000000001L637.5000000000005,683.9000000000001L641.8000000000004,684.7L647.2000000000004,688.2L647.2000000000004,689.6Z" class="sm_state sm_state_TWN1169" opacity="1" stroke-opacity="1" stroke-width="2.203790625000001" stroke-linejoin="round" transform="matrix(0.2297,0,0,0.2297,0,0)" style="-webkit-tap-highlight-color: rgba(0, 0, 0, 0); opacity: 1; cursor: pointer; stroke-opacity: 1; stroke-linejoin: round; fill-opacity: 1;" fill-opacity="1"></path><path fill="#f9604a" stroke="#ffffff" d="M861.8,498.8L858.6999999999999,499.7L853.3,503.59999999999997L856.4,516L854.1999999999999,519.8L850.8,521.0999999999999L847.5,520.4999999999999L843.6,522.0999999999999L843.1,523.5999999999999L838.3000000000001,521.3999999999999L831.0000000000001,517.2999999999998L827.0000000000001,514.3999999999999L821.5000000000001,513.4999999999999L815.3000000000001,509.6999999999999L810.1,505.7999999999999L809.6,501.4999999999999L814.2,494.9999999999999L816.1,487.1999999999999L814.5,479.89999999999986L814.1,474.89999999999986L810.7,472.29999999999984L806.4000000000001,470.09999999999985L803.8000000000001,465.59999999999985L800.4000000000001,462.09999999999985L796.5000000000001,462.39999999999986L792.7000000000002,461.6999999999999L789.6000000000001,458.59999999999985L785.4000000000001,455.49999999999983L778.9000000000001,453.3999999999998L775.4000000000001,449.6999999999998L776.5000000000001,443.8999999999998L772.9000000000001,439.6999999999998L766.1000000000001,437.49999999999983L762.0000000000001,435.49999999999983L757.7000000000002,434.29999999999984L752.7000000000002,432.29999999999984L748.7000000000002,423.59999999999985L744.1000000000001,420.49999999999983L730.4000000000001,421.49999999999983L727.3000000000001,420.3999999999998L736.2,406.1999999999998L743.1,397.8999999999998L750.3000000000001,391.7999999999998L768.7,385.69999999999976L773,382.9999999999998L776.7,379.7999999999998L781.2,377.2999999999998L790.2,374.0999999999998L810.3000000000001,370.4999999999998L814.5000000000001,375.0999999999998L820.8000000000001,378.0999999999998L825.5000000000001,381.1999999999998L828.7000000000002,383.99999999999983L832.8000000000002,384.99999999999983L837.0000000000002,387.1999999999998L842.1000000000003,394.6999999999998L842.6000000000003,398.79999999999984L841.6000000000003,402.99999999999983L838.3000000000003,406.3999999999998L825.2000000000003,410.2999999999998L821.5000000000002,414.2999999999998L821.7000000000003,420.4999999999998L820.7000000000003,426.2999999999998L821.7000000000003,431.3999999999998L827.1000000000003,436.49999999999983L828.1000000000003,441.59999999999985L826.8000000000003,448.29999999999984L831.9000000000003,451.1999999999998L839.3000000000003,450.79999999999984L844.3000000000003,452.79999999999984L852.8000000000003,465.09999999999985L851.3000000000003,470.39999999999986L848.2000000000003,474.09999999999985L849.0000000000002,479.29999999999984L850.4000000000002,484.89999999999986L859.3000000000002,493.39999999999986L861.8000000000002,498.79999999999984Z" class="sm_state sm_state_TWN1168" opacity="1" stroke-opacity="1" stroke-width="2.203790625000001" stroke-linejoin="round" transform="matrix(0.2297,0,0,0.2297,0,0)" style="-webkit-tap-highlight-color: rgba(0, 0, 0, 0); opacity: 1; cursor: pointer; stroke-opacity: 1; stroke-linejoin: round; fill-opacity: 1;" fill-opacity="1"></path></svg>