<svg id="ui" xmlns="http://www.w3.org/2000/svg" viewBox="0 0 37.04 35.82"><defs><style>.cls-1{fill:#f9604a;}</style></defs><path class="cls-1" d="M18.6,14.83c6.17-4,14.89-.58,17.41,3.88.9,1.59,1.07,7-1.24,10.31-3.32,4.77-10.72,8.87-17.54,5.67C10.65,31.59,12.4,18.82,18.6,14.83Z"/><path class="cls-1" d="M2.1,17.39a5.06,5.06,0,0,1,6.58,1.47,4.71,4.71,0,0,1-.47,3.89C7,24.55,4.15,26.1,1.58,24.89S-.25,18.9,2.1,17.39Z"/><path class="cls-1" d="M32.92,2.88c2.75-.71,4.29,2.86,4.1,5.42-.2,2.73-6.15,4.45-9.34,2.13S28.62,4,32.92,2.88Z"/><path class="cls-1" d="M10.21,3.85c1.84.46,2.47,5.62,1.89,7.63a3.92,3.92,0,0,1-5.66,2.45C3.63,12.56,2.71,9.41,5.18,6.46S8.86,3.51,10.21,3.85Z"/><path class="cls-1" d="M18.81.45C20.55-1.1,23.15,1.64,24,4,25,6.58,21.3,10.1,18,9S16.09,2.89,18.81.45Z"/></svg>