<svg id="ui" xmlns="http://www.w3.org/2000/svg" viewBox="0 0 115.27 133.34"><defs><style>.cls-1,.cls-3{fill:#1a4659;}.cls-1,.cls-2,.cls-3,.cls-4,.cls-6{stroke:#1a4659;stroke-linecap:round;stroke-linejoin:round;}.cls-2,.cls-4{fill:#f9604a;}.cls-2,.cls-3{stroke-width:0.75px;}.cls-4,.cls-6{stroke-width:0.5px;}.cls-5,.cls-6{fill:#fff;}</style></defs><path class="cls-1" d="M103.34,97.52c3.31-6.57,4.78-22.44-1.91-10-5.21,10.7-6.91,26.52-19.83,31.16-5.2,1.46-17.11.29-14.87-7.21,7-8.57,12.61,10,21.4-13.58,3.23-7.3,4.4-16.34,11.09-21.78,5-3.81,13.13-.88,14.69,5.13,1.89,6.9.12,14.77-1.83,21.44C109.53,111.49,97.9,108.3,103.34,97.52Z"/><path class="cls-1" d="M30.28,59.14s-36.1,58.43-3.6,73.76h44c26.46-20.6-7.46-73.76-7.46-73.76Z"/><path class="cls-2" d="M9,11.43c1.14-1.49,20.63,18.36,20.63,18.36L11.09,38.6S7.13,13.84,9,11.43Z"/><path class="cls-3" d="M24,25.37c17.19-7.28,39.16-7,45.7,12.43,1.35,4,1.55,15.56-5.22,22.28-9.74,9.69-30.25,17-47.82,8.43C-.34,60.24,6.7,32.69,24,25.37Z"/><path class="cls-3" d="M54.17.43c1.79-.53,5.94,27,5.94,27L39.94,23.68S51.26,1.31,54.17.43Z"/><path class="cls-4" d="M42.79,55a8.66,8.66,0,0,1-6.7-5.24c4.22-1.26.64-5.66-2.3-5.4-2.23.73-3.71,6.36.15,5.82C33.81,53.41,29.49,57,31,57.64s4-4,4.11-6.81c0,0,1.9,6,7.64,5A.39.39,0,0,0,42.79,55Z"/><path class="cls-5" d="M44.1,32.87c1.56-1.53,4.27-.68,3.62,1.66a2.73,2.73,0,0,1-2.82,1.93C43.57,36.26,43.21,33.9,44.1,32.87Z"/><path class="cls-5" d="M19.76,39.89c1.56-1.53,4.27-.68,3.62,1.67a2.72,2.72,0,0,1-2.81,1.93C19.23,43.28,18.87,40.93,19.76,39.89Z"/><path class="cls-6" d="M22.4,49.49c-7.76,1-15.86,3.16-21.63,8.74a.4.4,0,0,1-.57,0C3.68,51.31,15,48.47,22.38,48.71A.39.39,0,0,1,22.4,49.49Z"/><path class="cls-6" d="M21.18,52.69C14.69,54.83,8.55,58.53,4.4,64a.41.41,0,0,1-.59.06C5.87,57.55,14.37,52.87,21,51.92A.39.39,0,0,1,21.18,52.69Z"/><path class="cls-6" d="M21,57c-4.58,3.38-7,8.79-8.76,14.06a.39.39,0,0,1-.51.25c-.59-5.26,3.8-12.88,8.94-15A.39.39,0,0,1,21,57Z"/><path class="cls-6" d="M45.63,43.6c7.58-5.07,17.56-8.17,26.48-5.12a.39.39,0,0,1,.24.5.41.41,0,0,1-.47.25C63,37.42,54,40.38,46.05,44.26A.39.39,0,0,1,45.63,43.6Z"/><path class="cls-6" d="M48.87,45.8c7.34-3.29,16.37-3.51,23.49.44a.39.39,0,0,1-.29.72c-1-.26-1.86-.69-2.83-.89A36.8,36.8,0,0,0,52,45.86c-1,.17-1.92.43-2.86.68A.4.4,0,0,1,48.87,45.8Z"/><path class="cls-6" d="M51.9,49.69c6.83-1,13.36,3.11,17.62,8.13a.39.39,0,0,1,0,.56.39.39,0,0,1-.51,0c-4.87-4-10.52-7.62-17-7.92A.39.39,0,0,1,51.9,49.69Z"/></svg>