<svg id="ui" xmlns="http://www.w3.org/2000/svg" viewBox="0 0 56.65 46.38"><defs><style>.cls-1,.cls-2{fill:#f9604a;}.cls-1,.cls-4{stroke:#1a4659;stroke-linecap:round;stroke-linejoin:round;}.cls-3{fill:#1a4659;}.cls-4{fill:#35e4da;}.cls-5{fill:#73ede3;}</style></defs><path class="cls-1" d="M44.58,14.94a4.18,4.18,0,0,0,2-3.55,4.29,4.29,0,0,0-4.35-4.22,4.5,4.5,0,0,0-1.94.46,3.39,3.39,0,0,0-3.4-2.93,3.53,3.53,0,0,0-2,.65,6.89,6.89,0,0,0-12.73-1,6.93,6.93,0,0,0-1.45-.15,6.72,6.72,0,0,0-6.82,6.62,6.33,6.33,0,0,0,0,.76,4.17,4.17,0,0,0-1.13-.16,4.22,4.22,0,1,0,0,8.43c.17,0,.33,0,.49,0,1.65,5.05,7.39,8.79,14.24,8.79,5.71,0,10.66-2.61,13.1-6.41a4.37,4.37,0,0,0,2.76,1A4.29,4.29,0,0,0,47.74,19,4.23,4.23,0,0,0,44.58,14.94Z"/><path class="cls-2" d="M35.93,14.4a3,3,0,1,0-4.58-1"/><path class="cls-3" d="M35.79,14.21a2.86,2.86,0,0,0,.81-2.79,2.66,2.66,0,0,0-4.61-1,2.83,2.83,0,0,0-.42,2.88.25.25,0,0,1-.14.32.24.24,0,0,1-.29-.1,3.25,3.25,0,0,1,.15-3.63,3.43,3.43,0,0,1,6,3.26,3.28,3.28,0,0,1-1.2,1.45.23.23,0,0,1-.33-.08A.23.23,0,0,1,35.79,14.21Z"/><path class="cls-2" d="M27.94,8.37a2,2,0,1,0-3.53.44,1.92,1.92,0,0,0,.69.64"/><path class="cls-3" d="M27.77,8.31a1.84,1.84,0,0,0-.55-1.77,1.68,1.68,0,0,0-1.72-.31,1.65,1.65,0,0,0-1.07,1.38,1.81,1.81,0,0,0,.76,1.69.18.18,0,0,1,0,.25.19.19,0,0,1-.22.06,2.17,2.17,0,0,1-1.24-2,2.28,2.28,0,0,1,3.91-1.49,2.13,2.13,0,0,1,.43,2.36.17.17,0,0,1-.24.08A.19.19,0,0,1,27.77,8.31Z"/><path class="cls-2" d="M26.59,14.75A2.49,2.49,0,0,0,22.2,13a2.41,2.41,0,0,0-.58,1.33"/><path class="cls-3" d="M26.35,14.74a2.5,2.5,0,0,0-.71-1.46,2.31,2.31,0,0,0-1.38-.63,2.22,2.22,0,0,0-1.47.4,2.45,2.45,0,0,0-.94,1.33h0a.24.24,0,0,1-.47-.06,2.52,2.52,0,0,1,.85-1.95,2.79,2.79,0,0,1,2.11-.72,2.74,2.74,0,0,1,2,1,2.56,2.56,0,0,1,.53,2.06.24.24,0,0,1-.29.19.25.25,0,0,1-.19-.2Z"/><path class="cls-2" d="M23,14.77a2.91,2.91,0,1,0-5.34,1.88"/><path class="cls-3" d="M22.78,14.79A2.86,2.86,0,0,0,21.44,13a2.59,2.59,0,0,0-3.67,1.29,2.79,2.79,0,0,0,.11,2.26.25.25,0,0,1-.11.33.23.23,0,0,1-.29-.07,3.06,3.06,0,0,1-.54-2.8,3.27,3.27,0,0,1,5-1.75,3.07,3.07,0,0,1,1.34,2.52A.23.23,0,0,1,23,15a.25.25,0,0,1-.23-.18Z"/><path class="cls-4" d="M28.27,45.93a170.14,170.14,0,0,0,27.82-2L47.58,17.64A114.22,114.22,0,0,1,28.27,19.1,114.22,114.22,0,0,1,9,17.64L.45,43.88A170.23,170.23,0,0,0,28.27,45.93Z"/><path class="cls-2" d="M27,31.25a6.74,6.74,0,0,1,8.75,1.94,6.26,6.26,0,0,1-.62,5.18c-1.67,2.39-5.39,4.45-8.81,2.84S23.89,33.25,27,31.25Z"/><path class="cls-2" d="M18.72,32.53a2.54,2.54,0,0,1,3.3.74,2.36,2.36,0,0,1-.23,1.95,2.8,2.8,0,0,1-3.33,1.08C17.21,35.71,17.54,33.29,18.72,32.53Z"/><path class="cls-2" d="M34.2,25.24c1.37-.35,2.15,1.44,2,2.73S33.17,30.2,31.56,29,32,25.81,34.2,25.24Z"/><path class="cls-2" d="M22.79,25.73c.93.23,1.24,2.83.95,3.83a2,2,0,0,1-2.84,1.23A2.27,2.27,0,0,1,20.27,27C21.51,25.56,22.11,25.56,22.79,25.73Z"/><path class="cls-5" d="M28.38,24.62c1.12-.35,1.75,1.43,1.67,2.71s-2.5,2.23-3.8,1.07S26.64,25.18,28.38,24.62Z"/><path class="cls-3" d="M29.22,31.26a4.72,4.72,0,0,1,3.72,1.32c3.89,3.09,1.45,8.78-3.14,9.34-2.09.23-4.73-.6-5.38-2.81A6.79,6.79,0,0,1,29.22,31.26Zm.13.76c-2.88.49-5.49,5.78-2.78,7.69a4.75,4.75,0,0,0,7.14-3.55C33.68,34.11,31.49,31.75,29.35,32Z"/><path class="cls-3" d="M25.69,24.84c1.4-2.57,4.61-1.67,3.65,1.32C28.34,28.71,24.2,27.52,25.69,24.84Zm.67.38c-.68,1.37,1.13,1.41,1.48.35C28.43,24,27,24.21,26.36,25.22Z"/><path class="cls-3" d="M35.22,27.77a2.48,2.48,0,0,1-2.72,2,2.52,2.52,0,0,1-1.61-3.28C32.18,23.32,36,24.31,35.22,27.77Zm-.76-.13c.36-2-1.29-2.53-2.05-.65a1.55,1.55,0,0,0,.41,1.6A1.31,1.31,0,0,0,34.46,27.64Z"/><path class="cls-3" d="M18.47,33.32c3.18-2.08,5.36,2,1.94,3.65C17.41,38,15.7,35.2,18.47,33.32Zm.3.69c-2,1.06-.34,2.77,1,2.07a1.57,1.57,0,0,0,.76-1.65A1.16,1.16,0,0,0,18.77,34Z"/><path class="cls-3" d="M22.38,27a1.69,1.69,0,0,1,.51,1.65c-.17,1.56-1.8,3.44-3.42,2.15a2,2,0,0,1-.08-3.11C20.2,27,21.41,26.29,22.38,27Zm-.31.84c-.31-.28-1.19-.11-1.54.08a1.25,1.25,0,0,0-.4,2.14c.49.56,1.37.09,1.78-.43S22.56,28.25,22.07,27.81Z"/></svg>